<?xml version="1.0" encoding="utf-8"?>
<!-- Generator: Adobe Illustrator 16.0.3, SVG Export Plug-In . SVG Version: 6.00 Build 0)  -->
<!DOCTYPE svg PUBLIC "-//W3C//DTD SVG 1.1//EN" "http://www.w3.org/Graphics/SVG/1.1/DTD/svg11.dtd">
<svg version="1.1" id="Capa_1" xmlns="http://www.w3.org/2000/svg" xmlns:xlink="http://www.w3.org/1999/xlink" x="0px" y="0px"
	 width="430px" height="513px" viewBox="0 0 430 513" enable-background="new 0 0 430 513" xml:space="preserve">
<path fill="#4DB6AC" d="M412,78c-3.33-14-9-24.67-17-32s-19.67-14-35-20c-15.33-6.67-37.33-12.67-66-18s-54.83-8-78.5-8
	S165.67,2.67,137,8S86.33,19.33,71,26c-15.33,6-27,12.67-35,20S22.67,64,20,78L0,238v223h35v20c0,13.33,4.17,22.67,12.5,28
	s26.83,5.33,35.5,0s13-14.67,13-28v-20h242v20c0,13.33,5.17,22.67,15.5,28s20.5,5.33,30.5,0s15-14.67,15-28v-20h31V238L412,78z
	 M109,38.5c2.67-5,7.33-7.5,14-7.5h186.5c8.28,0,15,6.72,15,15s-6.72,15-15,15H123c-6.67,0-11.33-2.5-14-7.5S106.33,43.5,109,38.5z
	 M36,234l17-122c1.33-6.67,7-10,17-10h293c10,0,15.67,3.33,17,10l17,124c0.67,2,1,3.33,1,4c0,4.67-1.67,8.5-5,11.5s-7.67,4.5-13,4.5
	H53c-5.33,0-9.67-1.67-13-5s-5-7.67-5-13C35,236.67,35.33,235.33,36,234z M89,383.5c-6.67,6.33-14.5,9.5-23.5,9.5
	s-16.83-3.17-23.5-9.5s-10-14-10-23s3.33-16.67,10-23s14.5-9.5,23.5-9.5s16.83,3.17,23.5,9.5s10,14,10,23S95.67,377.17,89,383.5z
	 M391,383.5c-6.67,6.33-14.5,9.5-23.5,9.5s-16.83-3.17-23.5-9.5s-10-14-10-23s3.33-16.67,10-23s14.5-9.5,23.5-9.5
	s16.83,3.17,23.5,9.5s10,14,10,23S397.67,377.17,391,383.5z"/>
</svg>
