<?xml version="1.0" encoding="utf-8"?>
<!-- Generator: Adobe Illustrator 16.0.3, SVG Export Plug-In . SVG Version: 6.00 Build 0)  -->
<!DOCTYPE svg PUBLIC "-//W3C//DTD SVG 1.1//EN" "http://www.w3.org/Graphics/SVG/1.1/DTD/svg11.dtd">
<svg version="1.1" id="Layer_1" xmlns="http://www.w3.org/2000/svg" xmlns:xlink="http://www.w3.org/1999/xlink" x="0px" y="0px"
	 width="800px" height="800px" viewBox="0 0 800 800" enable-background="new 0 0 800 800" xml:space="preserve">
<path fill="#FFFFFF" d="M316.665,84.754C316.665,37.934,354.556,0,401.324,0c46.724,0,84.594,37.934,84.594,84.754
	c0,46.81-37.87,84.723-84.594,84.723C354.556,169.477,316.665,131.563,316.665,84.754z M680.299,190.311
	c36.895,0,66.798-29.916,66.798-66.852c0-36.947-29.903-66.873-66.798-66.873c-36.87,0-66.754,29.926-66.754,66.873
	C613.545,160.395,643.429,190.311,680.299,190.311z M797.575,360.948c-6.619,45.648-23.371,78.462-48.178,113.748l12.63,178.352
	c1.172,16.928-11.545,31.62-28.473,32.813c-0.736,0.055-1.454,0.075-2.19,0.075c-15.951,0-29.428-12.357-30.577-28.56
	l-14.823-209.949c-2.279-0.618-4.535-1.193-6.488-1.193c-2.279,0-4.472,0.412-6.707,0.685l-13.715,212.174
	c-1.042,16.255-14.541,28.733-30.578,28.733c-0.673,0-1.346-0.021-2.019-0.065c-16.904-1.084-29.729-15.712-28.624-32.649
	l16.276-251.941c0.131-1.715,0.434-3.363,0.823-4.99c1.131-30.688,4.125-72.637,6.576-104.103
	c-12.022,35.448-16.688,75.151-20.183,114.638c-1.996-11.859-3.604-23.816-5.231-36.198c-3.971-29.591-8.699-62.488-18.597-95.628
	c0.499-1.453,0.781-3.005,1.302-4.447c6.445-17.676,17.557-43.002,39.346-58.79c7.596-5.49,15.646-8.887,23.61-11.002
	c9.093-2.854,19.532-4.568,30.274-5.307l-17.209,181.012l24.869,29.21l28.451-29.21L686.526,197.04
	c17.167,0.586,32.162,4.015,43.687,9.234c10.808,4.264,21.701,10.916,32.683,21.756
	C793.344,258.029,805.671,305.229,797.575,360.948z M737.354,271.115c1.173,23.471,3.319,67.165,5.229,111.892
	c0.218,1.14,0.521,2.247,0.607,3.419v0.021c3.257-9.993,5.858-20.563,7.553-32.324C753.781,333.344,755.389,297.07,737.354,271.115z
	 M119.7,190.311c36.871,0,66.755-29.916,66.755-66.852c0-36.947-29.884-66.873-66.755-66.873c-36.893,0-66.798,29.926-66.798,66.873
	C52.902,160.395,82.808,190.311,119.7,190.311z M200.539,412c-3.276-6.965-9.657-81.368-22.049-117.925
	c2.453,31.466,5.447,73.415,6.576,104.103c0.391,1.627,0.694,3.275,0.824,4.99l16.276,251.941
	c1.107,16.938-11.719,31.565-28.624,32.649c-0.673,0.044-1.346,0.065-2.019,0.065c-16.038,0-29.536-12.479-30.578-28.733
	L127.23,446.917c-2.236-0.271-4.427-0.685-6.706-0.685c-1.953,0-4.21,0.575-6.489,1.193L99.214,657.377
	c-1.15,16.201-14.627,28.561-30.556,28.561c-0.738,0-1.476-0.021-2.213-0.076c-16.927-1.192-29.623-15.886-28.452-32.813
	l12.609-178.352C25.796,439.41,9.043,406.598,2.424,360.948c-8.095-55.72,4.232-102.919,34.701-132.921
	c10.959-10.84,21.854-17.492,32.661-21.756c11.524-5.22,26.519-8.648,43.686-9.234L91.857,378.354l28.451,29.209l24.871-29.209
	l-17.21-181.013c10.743,0.738,21.181,2.453,30.274,5.307c7.964,2.115,16.016,5.512,23.612,11.002
	c21.788,15.788,32.899,41.114,39.345,58.79c1.172,3.222,1.866,6.683,2.93,9.96c-8.79,31.315-13.152,62.283-16.927,90.549
	C205.53,385.515,200.995,412.998,200.539,412z M62.668,271.115c-18.056,25.955-16.45,62.229-13.412,83.007
	c1.693,11.762,4.297,22.331,7.552,32.324v-0.021c0.087-1.172,0.391-2.278,0.608-3.419C59.326,338.28,61.496,294.586,62.668,271.115z
	 M557.771,418c-2.213-12.977-3.949-26.095-5.686-39.215c-4.623-34.56-9.375-70.29-22.137-105.196
	c-8.159-22.406-22.267-54.514-49.869-74.533c-9.614-6.955-19.836-11.263-29.906-13.954c-11.545-3.603-24.762-5.783-38.39-6.716
	l21.81,229.404l-31.511,37.022l-36.046-37.022l27.388-229.894c-38.933,1.313-68.816,14.769-81.23,30.427
	c-19.098,18.065-30.903,43.652-38.781,65.244c-12.782,34.928-17.535,70.659-22.157,105.218c-1.737,13.12-3.473,26.238-5.687,39.215
	c-2.777,16.374,8.225,31.88,24.566,34.658c1.693,0.282,3.386,0.423,5.035,0.423c14.366,0,27.041-10.362,29.536-25.011
	c2.323-13.694,4.167-27.518,6.012-41.342c4.015-30.164,8.052-58.701,16.84-85.461c-1.498,30.535-3.429,71.051-5.187,112.382
	c-0.282,1.454-0.651,2.863-0.759,4.373l-23.872,337.9c-1.476,21.463,14.626,40.071,36.068,41.592
	c0.933,0.064,1.844,0.097,2.778,0.097c20.226,0,37.305-15.679,38.759-36.197l18.794-266.069c2.887-0.78,5.729-1.529,8.204-1.529
	c2.908,0,5.687,0.531,8.507,0.879l17.385,268.892C429.558,784.18,446.658,800,466.994,800c0.846,0,1.692-0.021,2.561-0.066
	c21.419-1.397,37.675-19.921,36.284-41.395L485.2,439.246c-0.13-2.192-0.563-4.285-1.041-6.358
	c-1.434-38.715-5.188-91.536-8.29-131.357c8.725,26.691,12.761,55.133,16.754,85.198c1.845,13.825,3.688,27.647,6.012,41.343
	c2.496,14.659,15.17,25.011,29.535,25.011c1.649,0,3.342-0.141,5.035-0.423C549.546,449.88,560.549,434.374,557.771,418z"/>
</svg>
