<?xml version="1.0" encoding="utf-8"?>
<!-- Generator: Adobe Illustrator 16.0.3, SVG Export Plug-In . SVG Version: 6.00 Build 0)  -->
<!DOCTYPE svg PUBLIC "-//W3C//DTD SVG 1.1//EN" "http://www.w3.org/Graphics/SVG/1.1/DTD/svg11.dtd">
<svg version="1.1" id="Layer_1" xmlns="http://www.w3.org/2000/svg" xmlns:xlink="http://www.w3.org/1999/xlink" x="0px" y="0px"
	 width="26.139px" height="29.128px" viewBox="0 0 26.139 29.128" enable-background="new 0 0 26.139 29.128" xml:space="preserve">
<g>
	<path fill="#4DB6AC" d="M20.977,15.102c0,1.021,0.823,1.847,1.849,1.847c1.021,0,1.845-0.826,1.845-1.847
		c0-1.021-0.823-1.847-1.845-1.847C21.801,13.254,20.977,14.08,20.977,15.102z"/>
	<path fill="#4DB6AC" d="M20.165,20.878c0,1.465,1.189,2.656,2.659,2.656c1.463,0,2.653-1.191,2.653-2.656
		c0-1.469-1.19-2.66-2.653-2.66C21.355,18.218,20.165,19.41,20.165,20.878z"/>
	<polygon fill="#4DB6AC" points="25.99,24.576 23.849,23.931 22.869,25.107 21.858,23.931 19.51,24.576 19.51,29.055 26.138,29.055 
			"/>
	<path fill="#4DB6AC" d="M13.313,18.292c-1.467,0-2.659,1.19-2.659,2.658c0,1.465,1.192,2.656,2.659,2.656
		c1.466,0,2.655-1.191,2.655-2.656C15.969,19.485,14.778,18.292,13.313,18.292z"/>
	<polygon fill="#4DB6AC" points="14.341,24.005 13.357,25.182 12.347,24.005 9.999,24.65 9.999,29.128 16.629,29.128 16.481,24.65 	
		"/>
	<circle fill="#4DB6AC" cx="17.992" cy="17.242" r="1.944"/>
	<path fill="#4DB6AC" d="M20.415,23.107c-0.347-0.654-0.588-1.363-0.588-2.156c0-0.521,0.141-1.005,0.298-1.474h-0.188h-0.474H18.74
		l-0.717,0.86l-0.739-0.86h-0.762H16.1c0.195,0.455,0.31,0.952,0.31,1.472c0,0.855-0.3,1.639-0.794,2.278h4.803L20.415,23.107z"/>
	<circle fill="#4DB6AC" cx="4.657" cy="10.674" r="3.732"/>
	<polygon fill="#4DB6AC" points="13.169,12.543 8.413,14.967 6.015,14.967 4.594,16.617 3.217,14.967 0.208,15.612 0,22.236 
		1.281,22.236 1.331,23.263 8.081,23.263 8.408,16.904 13.747,14.288 	"/>
	<path fill="#4DB6AC" d="M11.646,8.3l-1.498,2.234l0.581-0.046c0.04-0.004,3.914-0.328,6.597-0.923
		c3.521-0.778,5.616-2.336,5.755-4.273c0.187-2.635-2.781-4.998-6.612-5.267c-3.829-0.27-7.097,1.654-7.281,4.289
		C9.08,5.806,9.995,7.28,11.646,8.3z M16.429,0.586c3.521,0.248,6.254,2.341,6.089,4.667c-0.167,2.373-3.771,3.423-5.313,3.764
		c-2.027,0.449-4.753,0.743-5.936,0.857l1.179-1.76l-0.264-0.149C10.563,7.052,9.651,5.7,9.745,4.353
		C9.911,2.028,12.907,0.339,16.429,0.586z"/>
</g>
</svg>
