<?xml version="1.0" encoding="utf-8"?>
<!-- Generator: Adobe Illustrator 16.0.3, SVG Export Plug-In . SVG Version: 6.00 Build 0)  -->
<!DOCTYPE svg PUBLIC "-//W3C//DTD SVG 1.1//EN" "http://www.w3.org/Graphics/SVG/1.1/DTD/svg11.dtd">
<svg version="1.1" id="Layer_1" xmlns="http://www.w3.org/2000/svg" xmlns:xlink="http://www.w3.org/1999/xlink" x="0px" y="0px"
	 width="31.686px" height="27.214px" viewBox="0 0 31.686 27.214" enable-background="new 0 0 31.686 27.214" xml:space="preserve">
<g>
	<path fill="#FFFFFF" d="M31.285,4.925h-9.347V3.866H19.46v1.059h-8.877h-0.63V6.2h0.631v3.125L9.166,8.978
		c0.085-0.613,0.279-0.962,0.32-1.924C9.56,5.412,9.656,0,4.929,0c-0.497,0.001-1.08,0.062-1.333,0.174
		C3.344,0.288,3.298,0.546,3.134,0.602C2.964,0.66,2.722,0.637,2.573,0.708c-2.341,1.127-2.26,3.876-2.26,3.876l0.347,5.644
		L0,16.556l1.48,0.135l0.589-4.547c0.356,1.208,0.696,2.322,0.696,2.322l-0.39,3.051h2.472v-5.473L3.514,9.513l0.374-0.095V7.997
		C2.448,7.544,1.385,6.259,1.265,4.7l0.987,0.143v0.604h2.592V5.021h0.457v0.426h2.593V4.858l0.822-0.129
		C8.669,6.034,7.997,7.78,5.993,8.041v1.327H6l0.478,0.227l-1.306,2.349v5.573h1.313H7.73l-0.468-3.145c0,0,0.193-1.281,0.427-2.626
		l2.896,0.349v6.688h9.136v2.344l-5.042,5.688h1.813l3.402-3.845v3.845h1.042v-3.841l3.398,3.841h1.841l-5.07-5.688v-2.344h10.183
		V6.2h0.398V4.925H31.285z M4.556,5.157H2.541V4.132h2.016L4.556,5.157L4.556,5.157z M7.605,5.157H5.59V4.132h2.017L7.605,5.157
		L7.605,5.157z M7.894,4.42V3.844H5.302v0.601H4.844V3.844H2.253v0.563l-1-0.143c0.008-0.074,0.02-0.146,0.025-0.221
		c1.042-0.07,2.22-0.891,2.311-2.033c1.319,1.092,3.188,1.146,4.744,1.283c0.192,0.092,0.336,0.483,0.376,1.002L7.894,4.42z
		 M30.394,17.845h-9.291h-1.384h-8.243v-5.642l3.427,0.413l0.008-2.229l-3.435-0.843V6.2h18.917L30.394,17.845L30.394,17.845z"/>
	<path fill="#FFFFFF" d="M7.69,17.845l-5.313-0.021L2.257,21.41h1.645v4.865c-0.75,0.014-1.212,0.131-1.212,0.467
		c0,0.354,0.729,0.473,0.729,0.473h0.481h1.156h0.058c0,0,0-0.252,0-0.444c0-0.067-0.019-0.138-0.058-0.196V21.41H5.67l0.212,2.016
		L5.554,26.49c-0.093,0.08-0.133,0.178-0.133,0.281c0,0.193,0,0.443,0,0.443h0.056h1.166h0.476c0,0,0.729-0.115,0.729-0.473
		c0-0.322-0.434-0.441-1.13-0.461l0.233-2.855L6.79,21.41h1.104L7.69,17.845z"/>
</g>
</svg>
