<?xml version="1.0" encoding="utf-8"?>
<!-- Generator: Adobe Illustrator 16.0.3, SVG Export Plug-In . SVG Version: 6.00 Build 0)  -->
<!DOCTYPE svg PUBLIC "-//W3C//DTD SVG 1.1//EN" "http://www.w3.org/Graphics/SVG/1.1/DTD/svg11.dtd">
<svg version="1.1" id="Layer_1" xmlns="http://www.w3.org/2000/svg" xmlns:xlink="http://www.w3.org/1999/xlink" x="0px" y="0px"
	 width="31.764px" height="34.598px" viewBox="0 0 31.764 34.598" enable-background="new 0 0 31.764 34.598" xml:space="preserve">
<g>
	<circle fill="#FFFFFF" cx="28.831" cy="11.991" r="1.633"/>
	<path fill="#FFFFFF" d="M19.978,13.624c0.902,0,1.63-0.729,1.63-1.633c0-0.904-0.728-1.637-1.63-1.637
		c-0.904,0-1.634,0.729-1.634,1.637C18.344,12.893,19.071,13.624,19.978,13.624z"/>
	<circle fill="#FFFFFF" cx="11.431" cy="11.835" r="1.633"/>
	<circle fill="#FFFFFF" cx="2.927" cy="11.835" r="1.633"/>
	<circle fill="#FFFFFF" cx="28.61" cy="17.098" r="2.351"/>
	<polygon fill="#FFFFFF" points="31.631,19.801 31.185,19.801 30.605,19.801 29.737,19.801 28.87,20.84 27.976,19.801 
		27.056,19.801 26.404,19.801 25.899,19.801 25.899,24.33 31.764,24.33 	"/>
	<circle fill="#FFFFFF" cx="19.978" cy="17.098" r="2.351"/>
	<polygon fill="#FFFFFF" points="22.33,19.801 21.751,19.801 20.884,19.801 20.017,20.84 19.122,19.801 18.202,19.801 
		17.552,19.801 17.046,19.801 17.046,24.33 22.908,24.33 22.777,19.801 	"/>
	<path fill="#FFFFFF" d="M24.116,15.537c0.941,0,1.718-0.771,1.718-1.722c0-0.947-0.772-1.72-1.718-1.72
		c-0.95,0-1.725,0.771-1.725,1.72C22.396,14.765,23.166,15.537,24.116,15.537z"/>
	<path fill="#FFFFFF" d="M25.834,15.795h-0.42h-0.641l-0.632,0.764l-0.651-0.764h-0.677h-0.378c0.18,0.399,0.273,0.842,0.273,1.304
		c0,0.755-0.27,1.447-0.7,2.013h4.246l-0.002-0.104c-0.306-0.578-0.521-1.205-0.521-1.905c0-0.462,0.124-0.89,0.268-1.305
		L25.834,15.795L25.834,15.795z"/>
	<circle fill="#FFFFFF" cx="11.564" cy="17.163" r="2.351"/>
	<polygon fill="#FFFFFF" points="13.917,19.865 13.341,19.865 12.473,19.865 11.605,20.906 10.709,19.865 9.791,19.865 
		9.139,19.865 8.635,19.865 8.635,24.397 14.496,24.397 14.367,19.865 	"/>
	<circle fill="#FFFFFF" cx="15.703" cy="13.884" r="1.72"/>
	<path fill="#FFFFFF" d="M17.423,15.861h-0.42h-0.637l-0.637,0.763l-0.651-0.763h-0.676h-0.377c0.179,0.402,0.275,0.844,0.275,1.304
		c0,0.755-0.266,1.447-0.703,2.015h4.248l-0.003-0.104c-0.305-0.578-0.519-1.207-0.519-1.907c0-0.461,0.124-0.891,0.263-1.306
		L17.423,15.861L17.423,15.861z"/>
	<path fill="#FFFFFF" d="M2.932,19.514c1.295,0,2.35-1.055,2.35-2.35c0-1.297-1.055-2.354-2.35-2.354
		c-1.302,0-2.354,1.057-2.354,2.354S1.63,19.514,2.932,19.514z"/>
	<polygon fill="#FFFFFF" points="5.283,19.865 4.704,19.865 3.837,19.865 2.97,20.906 2.073,19.865 1.157,19.865 0.506,19.865 
		0,19.865 0,24.397 5.861,24.397 5.73,19.865 	"/>
	<circle fill="#FFFFFF" cx="7.068" cy="13.884" r="1.72"/>
	<path fill="#FFFFFF" d="M8.789,15.861H8.367H7.732l-0.633,0.763l-0.656-0.763H5.771H5.395c0.174,0.402,0.274,0.843,0.274,1.304
		c0,0.755-0.27,1.447-0.704,2.015h4.249l-0.002-0.106c-0.306-0.577-0.521-1.204-0.521-1.905c0-0.461,0.123-0.891,0.268-1.306
		L8.789,15.861L8.789,15.861z"/>
</g>
</svg>
