<?xml version="1.0" encoding="utf-8"?>
<!-- Generator: Adobe Illustrator 16.0.0, SVG Export Plug-In . SVG Version: 6.00 Build 0)  -->
<!DOCTYPE svg PUBLIC "-//W3C//DTD SVG 1.1//EN" "http://www.w3.org/Graphics/SVG/1.1/DTD/svg11.dtd">
<svg version="1.1" id="Слой_1" xmlns="http://www.w3.org/2000/svg" xmlns:xlink="http://www.w3.org/1999/xlink" x="0px" y="0px"
	 width="2000px" height="1200px" viewBox="0 0 2000 1200" enable-background="new 0 0 2000 1200" xml:space="preserve">
<rect y="1.937" fill-rule="evenodd" clip-rule="evenodd" fill="#FAF8F6" width="2000" height="1200"/>
<path opacity="0.1" fill-rule="evenodd" clip-rule="evenodd" d="M1633.355-692.328c35.709,282.957-325.502,691.99-729.081,643.834
	c38.969,197.52,60.098,394.503-24.362,583.973c-29.536,66.18-70.658,121.509-123.04,173.436
	c-115.053,114.09-254.115,186.793-398.219,252.654c-146.36,66.908-297.374,123.813-432.841,213.35
	c-33.84,22.467-136.289,95.965-136.289,95.965s9.705-115.324,18.071-157.715c20.979-106.037,75.524-212.508,154.601-291.299
	c44.18-43.898,94.775-81.633,147.784-114.135c54.329-33.392,115.161-54.903,176.015-83.879
	C105.514,485.577,35.87,327.144,83.098,172.444C118.396,57.284,233.044-23.07,370.916-29.292
	c-92.39,83.106-104.604,177.955-81.538,247.04c36.356,108.92,199.437,152.777,281.42,87.588
	c153.051-121.632,137.051-378.209-29.886-479.012c-156.269-94.35-333.018-71.008-469.348,62.373
	C-30.924-10.975-101.08,110.792-157.608,240.826c-121.749,279.915-191.569,583.737-249.149,777.081
	c-62.859,210.801-202.599,406.266-356.556,531.635c-20.603,16.934-42.27,34.773-63.144,51.545
	c-114.281,92.395-223.051,181.904-322.879,292.91c-148.011,164.563-113.02,329.051-113.02,329.051s-30.564-20.82-50.283-50.732
	c-49.73-75.801-86.794-168.113-46.756-292.264c41.287-128.043,44.765-46.963-92.189-103.232
	c-83.34-34.248-160.492-78.49-233.473-130.852c-47.199-33.785-98.395-75.16-147.677-117.799
	c11.574,64.146,21.143,129.291,26.23,187.066c7.828,89.51,6.648,178.436-6.331,267.609
	c-21.305,146.484-89.283,102.25,41.917,131.906c127.36,28.682,187.837,107.645,227.767,189.037
	c15.741,32.162,18.026,69.113,18.026,69.113s-123.726-113.836-340.718-70.279c-146.379,29.387-278.792,77.412-416.496,128.793
	c-25.049,9.42-51.489,18.951-76.539,28.059c-186.267,68.695-425.64,89.455-639.036,36.17
	c-195.764-48.824-492.816-143.414-795.709-181.176c-140.723-17.545-281.243-19.168-419.781,17.973
	c-184.119,49.379-294.263,189.664-292.634,372.232c1.835,194.912,214.454,339.389,397.042,269.574
	c97.848-37.387,143.152-200.012,67.914-286.795c-47.7-55.035-135.567-92.771-254.131-55.588
	c75.616-115.557,203.143-173.326,320.144-145.012c157.21,38.096,258.118,178.756,285.23,404.436
	c55.936-37.59,105.401-78.998,161.804-108.787c55.057-29.1,113.226-53.412,173.459-69.057
	c108.095-27.969,227.506-20.686,329.457,15.225c40.749,14.373,144.959,64.797,144.959,64.797s-115.438,50.742-151.99,68.418
	c-146.05,71-271.911,171.947-404.012,263.893c-130.064,90.514-263.443,173.162-420.22,214.082
	c-71.325,18.68-139.91,25.877-211.893,17.635c-206.085-23.768-364.886-142.275-515.021-276.379
	c-163.951,371.818-699.995,474.488-925.342,299.713c171.931-70.764,331.379-158.742,475.377-272.428
	c131.128-103.52,256.573-219.822,296.09-385.943c72.416-304.143,242.802-514.945,532.721-630.787
	c30.287-12.137,72.361-31.709,100.016-48.658c58.067-35.516,104.136-72.174,152.68-124.08
	c102.993-109.963,82.257-278.188,82.257-278.188s62.709,27.98,111.519,122.436c45.604,88.332,57.656,219.193-18.421,374.215
	c319.827,1.854,595.607,163.047,899.278,209.006c302.034,45.775,569.931-32.865,780.808-252.184
	c205.74-213.893,149.78-505.215-103.121-620.123c-47.78-21.707-97.078-31.182-148.864-23.289
	c-91.014,13.736-180.653,98.645-178.669,176.676c2.456,96.699,76.476,128.443,154.404,149.34
	c43.059,11.615,88.254,15.23,132.333,22.416c-144.345,233.744-477.461,254.713-622.258,62.25
	c-86.269-114.619-55.998-303.146,67.949-437.285c140.045-151.592,312.103-205.074,514.144-160.492
	c17.459,3.875,35.097,7.381,52.762,10.549c2.667,0.514,5.772-1.273,10.326-2.447c-178.492-189.693-186.994-423.908-178.175-663.291
	c2.329-62.98,2.329-62.98,2.329-62.98s0,0,55.388,30.049c210.498,114.281,407.847,240.828,480.168,491.102
	c3.315-3.348,6.43-5.105,7.351-7.664c6.254-16.822,12.236-33.799,17.8-50.787c64.482-196.602,198.117-317.445,399.883-360.789
	c178.571-38.385,356.255,31.553,411.046,164.133c91.883,222.646-95.806,498.68-370.468,503.932
	c16.23-41.621,36.139-82.379,48.094-125.342c21.667-77.732,32.065-157.594-49.881-208.934
	c-66.188-41.432-184.922-7.51-243.072,63.791c-33.16,40.58-50.107,87.848-55.753,140
	c-29.872,276.197,192.436,472.662,481.257,404.496c296.082-69.814,500.182-260.395,614.57-543.588
	c115.124-284.83,116.733-604.231,277.969-880.422C-490.949,152.06-597.475,75.029-650.262-9.171
	c-56.447-90.114-48.592-158.328-48.592-158.328S-564.637-63.99-417.465-96.708c69.316-15.292,124.339-36.266,184.449-68.184
	c28.656-15.187,66.936-41.417,92.803-61.308c247.295-190.562,515.491-229.866,814.14-137.34
	c163.158,50.542,327.047,1.818,482.976-58.378C1328.02-487.929,1484.924-580.359,1633.355-692.328z"/>
<path opacity="0.2" fill-rule="evenodd" clip-rule="evenodd" fill="#89AD91" d="M631.092,322.244
	c3.107,24.619-28.32,60.208-63.434,56.019c3.391,17.184,5.23,34.324-2.119,50.809c-2.57,5.756-6.148,10.572-10.705,15.088
	c-10.013,9.928-22.109,16.252-34.646,21.985c-12.735,5.818-25.875,10.771-37.66,18.562c-2.947,1.957-11.858,8.349-11.858,8.349
	s0.845-10.035,1.573-13.723c1.826-9.229,6.57-18.489,13.45-25.344c3.843-3.817,8.247-7.102,12.858-9.929
	c4.727-2.905,10.019-4.778,15.314-7.299c-15.703-12.029-21.763-25.815-17.652-39.275c3.07-10.021,13.045-17.01,25.042-17.551
	c-8.04,7.231-9.103,15.481-7.095,21.494c3.164,9.476,17.35,13.291,24.484,7.62c13.314-10.583,11.924-32.908-2.602-41.677
	c-13.596-8.21-28.974-6.18-40.834,5.426c-8.92,8.73-15.023,19.325-19.941,30.636c-10.591,24.353-16.668,50.788-21.677,67.613
	c-5.469,18.341-17.628,35.349-31.02,46.255c-1.796,1.473-3.68,3.026-5.497,4.484c-9.941,8.039-19.407,15.828-28.092,25.486
	c-12.878,14.317-9.833,28.629-9.833,28.629s-2.66-1.814-4.375-4.417c-4.326-6.594-7.552-14.623-4.069-25.428
	c3.594-11.138,3.896-4.088-8.02-8.979c-7.252-2.981-13.964-6.832-20.314-11.387c-4.107-2.939-8.561-6.54-12.848-10.247
	c1.006,5.577,1.84,11.246,2.281,16.274c0.682,7.785,0.578,15.525-0.551,23.282c-1.854,12.747-7.768,8.898,3.646,11.478
	c11.081,2.497,16.343,9.369,19.819,16.446c1.368,2.8,1.568,6.016,1.568,6.016s-10.766-9.906-29.645-6.114
	c-12.734,2.559-24.258,6.735-36.238,11.205c-2.18,0.818-4.479,1.649-6.659,2.441c-16.206,5.974-37.034,7.783-55.601,3.144
	c-17.032-4.247-42.877-12.476-69.229-15.759c-12.243-1.528-24.471-1.669-36.524,1.563c-16.02,4.295-25.604,16.501-25.461,32.385
	c0.159,16.96,18.658,29.529,34.545,23.455c8.514-3.252,12.455-17.405,5.909-24.952c-4.15-4.786-11.794-8.072-22.11-4.835
	c6.58-10.056,17.672-15.08,27.854-12.618c13.678,3.314,22.457,15.552,24.815,35.188c4.865-3.272,9.172-6.875,14.078-9.466
	c4.791-2.533,9.852-4.646,15.092-6.01c9.405-2.43,19.795-1.797,28.666,1.328c3.543,1.249,12.611,5.636,12.611,5.636
	s-10.043,4.413-13.224,5.953c-12.708,6.177-23.659,14.961-35.152,22.96c-11.315,7.871-22.92,15.066-36.56,18.627
	c-6.207,1.625-12.174,2.25-18.438,1.535c-17.93-2.068-31.747-12.381-44.809-24.049c-14.266,32.353-60.904,41.286-80.511,26.078
	c14.958-6.156,28.831-13.814,41.36-23.703c11.408-9.008,22.323-19.125,25.762-33.578c6.299-26.462,21.125-44.807,46.352-54.887
	c2.633-1.054,6.294-2.759,8.699-4.229c5.053-3.091,9.063-6.281,13.285-10.796c8.962-9.572,7.156-24.205,7.156-24.205
	s5.457,2.433,9.703,10.65c3.967,7.685,5.014,19.074-1.604,32.56c27.827,0.163,51.822,14.188,78.242,18.187
	c26.28,3.982,49.587-2.862,67.936-21.941c17.9-18.608,13.031-43.957-8.972-53.955c-4.159-1.887-8.446-2.714-12.954-2.026
	c-7.918,1.197-15.717,8.582-15.546,15.373c0.216,8.409,6.655,11.172,13.436,12.993c3.747,1.01,7.678,1.324,11.516,1.947
	c-12.559,20.339-41.544,22.164-54.142,5.416c-7.506-9.97-4.871-26.372,5.912-38.044c12.186-13.192,27.155-17.843,44.734-13.962
	c1.518,0.334,3.052,0.637,4.59,0.914c0.232,0.045,0.502-0.109,0.898-0.211c-15.529-16.506-16.27-36.883-15.503-57.71
	c0.202-5.481,0.202-5.481,0.202-5.481s0,0,4.82,2.613c18.314,9.945,35.484,20.956,41.776,42.733c0.29-0.293,0.56-0.446,0.642-0.669
	c0.545-1.463,1.063-2.941,1.547-4.417c5.611-17.106,17.237-27.622,34.795-31.394c15.535-3.338,30.994,2.746,35.761,14.282
	c7.995,19.374-8.335,43.39-32.231,43.848c1.41-3.623,3.145-7.169,4.183-10.907c1.888-6.763,2.788-13.712-4.342-18.179
	c-5.756-3.607-16.087-0.654-21.146,5.549c-2.886,3.532-4.359,7.645-4.85,12.182c-2.601,24.029,16.742,41.125,41.871,35.195
	c25.76-6.075,43.52-22.654,53.472-47.297c10.016-24.781,10.155-52.573,24.185-76.602c-14.979-1.171-24.245-7.875-28.839-15.198
	c-4.911-7.842-4.228-13.775-4.228-13.775s11.676,9.004,24.481,6.159c6.03-1.332,10.819-3.156,16.049-5.934
	c2.493-1.321,5.823-3.604,8.075-5.335c21.515-16.579,44.852-19.998,70.834-11.947c14.195,4.396,28.455,0.158,42.022-5.077
	C604.527,340.027,618.178,331.987,631.092,322.244z"/>
<path opacity="0.2" fill-rule="evenodd" clip-rule="evenodd" fill="#89AD91" d="M851.234,439.648
	c1.96,15.522-17.854,37.959-39.992,35.319c2.137,10.834,3.297,21.641-1.336,32.032c-1.621,3.63-3.877,6.665-6.75,9.513
	c-6.313,6.26-13.938,10.247-21.844,13.861c-8.029,3.668-16.313,6.791-23.742,11.703c-1.858,1.233-7.477,5.263-7.477,5.263
	s0.531-6.326,0.991-8.651c1.151-5.818,4.142-11.656,8.48-15.979c2.423-2.405,5.199-4.477,8.106-6.26
	c2.979-1.831,6.316-3.012,9.654-4.602c-9.899-7.584-13.72-16.275-11.129-24.763c1.936-6.316,8.225-10.724,15.789-11.065
	c-5.069,4.56-5.738,9.762-4.474,13.553c1.995,5.974,10.938,8.38,15.437,4.804c8.395-6.673,7.518-20.747-1.64-26.276
	c-8.571-5.175-18.267-3.896-25.745,3.421c-5.623,5.505-9.471,12.185-12.572,19.316c-6.677,15.354-10.509,32.02-13.666,42.627
	c-3.448,11.563-11.115,22.285-19.558,29.162c-1.132,0.929-2.319,1.908-3.465,2.828c-6.269,5.067-12.236,9.979-17.712,16.067
	c-8.119,9.026-6.199,18.049-6.199,18.049s-1.677-1.143-2.758-2.784c-2.728-4.156-4.762-9.219-2.565-16.03
	c2.265-7.023,2.456-2.578-5.057-5.662c-4.571-1.879-8.804-4.308-12.808-7.179c-2.59-1.853-5.396-4.124-8.101-6.461
	c0.635,3.517,1.16,7.091,1.438,10.261c0.43,4.908,0.365,9.789-0.346,14.678c-1.169,8.037-4.897,5.61,2.297,7.237
	c6.986,1.574,10.305,5.907,12.496,10.37c0.862,1.763,0.989,3.791,0.989,3.791s-6.788-6.245-18.69-3.854
	c-8.029,1.613-15.293,4.246-22.848,7.064c-1.373,0.517-2.823,1.04-4.198,1.54c-10.218,3.765-23.349,4.906-35.054,1.981
	c-10.738-2.678-27.033-7.866-43.646-9.936c-7.72-0.964-15.43-1.053-23.028,0.985c-10.101,2.707-16.143,10.403-16.053,20.418
	c0.101,10.691,11.765,18.616,21.78,14.787c5.367-2.05,7.852-10.975,3.726-15.73c-2.618-3.02-7.437-5.091-13.94-3.05
	c4.148-6.339,11.143-9.507,17.562-7.954c8.624,2.088,14.158,9.805,15.646,22.185c3.066-2.063,5.781-4.335,8.875-5.969
	c3.021-1.597,6.211-2.929,9.515-3.788c5.931-1.533,12.481-1.133,18.073,0.837c2.234,0.788,7.951,3.554,7.951,3.554
	s-6.332,2.782-8.336,3.752c-8.014,3.895-14.916,9.433-22.163,14.477c-7.135,4.962-14.45,9.499-23.05,11.743
	c-3.914,1.025-7.676,1.418-11.624,0.969c-11.304-1.305-20.016-7.807-28.251-15.161c-8.994,20.396-38.398,26.026-50.76,16.44
	c9.432-3.883,18.178-8.709,26.076-14.944c7.193-5.679,14.075-12.058,16.242-21.171c3.972-16.683,13.319-28.249,29.224-34.603
	c1.66-0.665,3.968-1.741,5.484-2.667c3.187-1.949,5.714-3.959,8.376-6.807c5.65-6.035,4.512-15.261,4.512-15.261
	s3.44,1.534,6.117,6.715c2.502,4.845,3.162,12.025-1.01,20.528c17.544,0.104,32.672,8.945,49.329,11.466
	c16.568,2.512,31.263-1.805,42.831-13.834c11.285-11.731,8.217-27.714-5.656-34.017c-2.622-1.188-5.326-1.712-8.167-1.277
	c-4.992,0.754-9.909,5.41-9.802,9.692c0.137,5.302,4.196,7.044,8.471,8.191c2.362,0.637,4.84,0.834,7.261,1.228
	c-7.918,12.823-26.192,13.975-34.136,3.414c-4.73-6.286-3.07-16.625,3.728-23.985c7.684-8.316,17.122-11.248,28.204-8.801
	c0.957,0.209,1.924,0.4,2.895,0.575c0.146,0.027,0.315-0.069,0.566-0.133c-9.791-10.405-10.258-23.253-9.774-36.385
	c0.127-3.455,0.127-3.455,0.127-3.455s0,0,3.04,1.646c11.546,6.271,22.371,13.213,26.338,26.942
	c0.184-0.185,0.354-0.281,0.404-0.422c0.344-0.922,0.67-1.854,0.976-2.784c3.538-10.785,10.868-17.415,21.937-19.793
	c9.795-2.104,19.541,1.731,22.546,9.003c5.041,12.215-5.255,27.357-20.321,27.645c0.891-2.282,1.983-4.519,2.639-6.876
	c1.189-4.263,1.758-8.645-2.738-11.461c-3.629-2.273-10.142-0.413-13.331,3.498c-1.819,2.227-2.749,4.82-3.058,7.681
	c-1.64,15.149,10.556,25.928,26.398,22.189c16.241-3.83,27.438-14.282,33.712-29.819c6.315-15.624,6.403-33.145,15.247-48.296
	c-9.443-0.737-15.285-4.964-18.182-9.582c-3.097-4.942-2.665-8.684-2.665-8.684s7.362,5.677,15.435,3.884
	c3.803-0.841,6.821-1.991,10.119-3.742c1.572-0.832,3.672-2.271,5.091-3.363c13.563-10.453,28.276-12.608,44.658-7.533
	c8.95,2.772,17.94,0.101,26.494-3.2C834.486,450.861,843.093,445.792,851.234,439.648z"/>
<path fill-rule="evenodd" clip-rule="evenodd" fill="#2C8F3E" d="M738.123,333.057c2.68,21.239-24.434,51.941-54.726,48.326
	c2.926,14.826,4.513,29.612-1.829,43.834c-2.217,4.967-5.304,9.121-9.234,13.017c-8.637,8.564-19.074,14.021-29.89,18.966
	c-10.987,5.021-22.322,9.292-32.49,16.014c-2.54,1.687-10.229,7.203-10.229,7.203s0.728-8.657,1.355-11.839
	c1.576-7.96,5.67-15.951,11.605-21.865c3.315-3.294,7.113-6.127,11.093-8.566c4.078-2.506,8.644-4.122,13.212-6.296
	c-13.547-10.379-18.775-22.271-15.229-33.883c2.648-8.644,11.253-14.675,21.603-15.142c-6.935,6.238-7.852,13.357-6.12,18.543
	c2.729,8.175,14.969,11.466,21.123,6.574c11.486-9.131,10.287-28.389-2.244-35.955c-11.729-7.083-24.996-5.331-35.229,4.681
	c-7.693,7.531-12.959,16.671-17.202,26.431c-9.138,21.01-14.38,43.815-18.701,58.327c-4.718,15.824-15.208,30.496-26.763,39.905
	c-1.547,1.271-3.174,2.611-4.74,3.87c-8.577,6.935-16.742,13.653-24.234,21.986c-11.111,12.352-8.484,24.698-8.484,24.698
	s-2.293-1.563-3.773-3.809c-3.732-5.689-6.516-12.618-3.51-21.938c3.1-9.61,3.359-3.526-6.92-7.748
	c-6.256-2.571-12.046-5.893-17.525-9.822c-3.543-2.535-7.385-5.643-11.084-8.841c0.868,4.813,1.587,9.703,1.969,14.04
	c0.588,6.718,0.499,13.394-0.476,20.086c-1.599,10.996-6.701,7.676,3.146,9.901c9.56,2.154,14.099,8.081,17.097,14.188
	c1.182,2.415,1.354,5.189,1.354,5.189s-9.287-8.546-25.574-5.275c-10.988,2.206-20.928,5.812-31.264,9.667
	c-1.88,0.707-3.864,1.423-5.744,2.106c-13.982,5.155-31.949,6.715-47.967,2.714c-14.694-3.665-36.991-10.765-59.727-13.598
	c-10.563-1.317-21.109-1.438-31.509,1.349c-13.819,3.706-22.088,14.235-21.966,27.938c0.139,14.632,16.098,25.475,29.803,20.235
	c7.346-2.806,10.745-15.015,5.098-21.526c-3.58-4.131-10.176-6.965-19.074-4.173c5.676-8.674,15.247-13.009,24.029-10.885
	c11.801,2.86,19.375,13.416,21.41,30.357c4.197-2.822,7.911-5.93,12.145-8.166c4.133-2.184,8.499-4.009,13.02-5.183
	c8.113-2.099,17.077-1.553,24.73,1.144c3.057,1.078,10.88,4.861,10.88,4.861s-8.665,3.809-11.409,5.137
	c-10.962,5.329-20.41,12.907-30.325,19.808c-9.763,6.793-19.773,12.998-31.542,16.069c-5.354,1.401-10.501,1.942-15.904,1.323
	c-15.469-1.784-27.389-10.678-38.658-20.745c-12.306,27.909-52.541,35.615-69.456,22.497c12.905-5.312,24.873-11.916,35.683-20.448
	c9.842-7.771,19.258-16.5,22.225-28.969c5.435-22.829,18.225-38.654,39.986-47.349c2.273-0.91,5.432-2.381,7.507-3.651
	c4.358-2.666,7.816-5.418,11.46-9.314c7.73-8.254,6.174-20.881,6.174-20.881s4.707,2.101,8.371,9.19
	c3.423,6.629,4.327,16.453-1.383,28.089c24.006,0.14,44.707,12.238,67.5,15.688c22.672,3.436,42.779-2.468,58.607-18.93
	c15.443-16.055,11.244-37.922-7.739-46.546c-3.587-1.629-7.286-2.341-11.175-1.749c-6.83,1.031-13.56,7.404-13.411,13.263
	c0.185,7.257,5.741,9.64,11.591,11.209c3.231,0.871,6.623,1.142,9.934,1.682c-10.835,17.545-35.84,19.119-46.708,4.673
	c-6.476-8.604-4.203-22.754,5.101-32.822c10.512-11.379,23.426-15.394,38.592-12.047c1.311,0.291,2.634,0.554,3.96,0.792
	c0.2,0.037,0.433-0.096,0.775-0.185c-13.397-14.237-14.036-31.819-13.374-49.787c0.175-4.727,0.175-4.727,0.175-4.727
	s0,0,4.157,2.255c15.801,8.579,30.613,18.076,36.042,36.863c0.249-0.251,0.482-0.384,0.552-0.576
	c0.47-1.262,0.918-2.536,1.336-3.812c4.84-14.757,14.871-23.828,30.016-27.082c13.403-2.881,26.74,2.369,30.854,12.32
	c6.896,16.713-7.191,37.432-27.809,37.825c1.219-3.123,2.714-6.183,3.61-9.407c1.627-5.835,2.405-11.83-3.745-15.683
	c-4.967-3.111-13.879-0.563-18.244,4.788c-2.49,3.045-3.761,6.594-4.184,10.509c-2.244,20.73,14.443,35.478,36.122,30.361
	c22.225-5.24,37.544-19.545,46.13-40.803c8.642-21.379,8.763-45.353,20.865-66.084c-12.922-1.01-20.918-6.792-24.88-13.112
	c-4.237-6.764-3.647-11.884-3.647-11.884s10.074,7.769,21.121,5.313c5.203-1.148,9.333-2.722,13.846-5.118
	c2.15-1.14,5.023-3.11,6.965-4.603c18.563-14.303,38.693-17.254,61.109-10.308c12.247,3.793,24.549,0.136,36.254-4.382
	C715.204,348.399,726.98,341.461,738.123,333.057z"/>
<path fill-rule="evenodd" clip-rule="evenodd" fill="#2C8F3E" d="M280.629,523.681c1.236,9.795-11.268,23.953-25.237,22.286
	c1.349,6.837,2.081,13.656-0.843,20.215c-1.023,2.29-2.447,4.206-4.259,6.002c-3.983,3.949-8.796,6.466-13.784,8.747
	c-5.066,2.315-10.294,4.285-14.982,7.385c-1.172,0.777-4.719,3.321-4.719,3.321s0.336-3.992,0.626-5.459
	c0.727-3.671,2.614-7.356,5.352-10.084c1.529-1.519,3.28-2.825,5.116-3.95c1.881-1.156,3.985-1.901,6.092-2.903
	c-6.247-4.786-8.658-10.271-7.022-15.626c1.222-3.985,5.189-6.767,9.962-6.982c-3.197,2.877-3.621,6.16-2.822,8.552
	c1.26,3.77,6.903,5.287,9.741,3.031c5.298-4.211,4.743-13.092-1.034-16.581c-5.41-3.266-11.527-2.458-16.246,2.159
	c-3.549,3.473-5.977,7.688-7.934,12.188c-4.213,9.689-6.631,20.206-8.623,26.898c-2.176,7.297-7.014,14.063-12.342,18.402
	c-0.714,0.586-1.464,1.204-2.187,1.784c-3.956,3.198-7.722,6.297-11.177,10.14c-5.123,5.696-3.912,11.39-3.912,11.39
	s-1.057-0.721-1.74-1.757c-1.721-2.623-3.004-5.818-1.618-10.116c1.429-4.432,1.55-1.626-3.19-3.573
	c-2.885-1.186-5.556-2.718-8.082-4.529c-1.635-1.169-3.406-2.603-5.111-4.077c0.399,2.22,0.73,4.475,0.907,6.475
	c0.271,3.098,0.229,6.177-0.22,9.263c-0.737,5.071-3.09,3.54,1.451,4.566c4.408,0.993,6.502,3.727,7.885,6.543
	c0.545,1.113,0.624,2.393,0.624,2.393s-4.282-3.94-11.794-2.433c-5.066,1.018-9.65,2.681-14.417,4.458
	c-0.867,0.326-1.782,0.656-2.649,0.972c-6.447,2.377-14.733,3.097-22.12,1.252c-6.776-1.69-17.059-4.965-27.543-6.271
	c-4.871-0.607-9.735-0.663-14.53,0.622c-6.373,1.709-10.186,6.565-10.13,12.884c0.063,6.749,7.423,11.748,13.743,9.332
	c3.388-1.294,4.955-6.924,2.352-9.927c-1.651-1.905-4.693-3.212-8.797-1.925c2.617-4,7.031-5.999,11.082-5.02
	c5.441,1.319,8.935,6.188,9.873,14.001c1.936-1.303,3.648-2.735,5.6-3.767c1.906-1.008,3.92-1.85,6.005-2.391
	c3.741-0.968,7.875-0.716,11.404,0.527c1.41,0.497,5.018,2.242,5.018,2.242s-3.995,1.757-5.261,2.37
	c-5.056,2.457-9.412,5.95-13.985,9.132c-4.502,3.133-9.118,5.994-14.546,7.41c-2.469,0.646-4.842,0.896-7.334,0.611
	c-7.134-0.822-12.631-4.924-17.827-9.566c-5.675,12.869-24.229,16.424-32.03,10.375c5.951-2.451,11.471-5.496,16.455-9.43
	c4.539-3.584,8.881-7.608,10.248-13.359c2.508-10.528,8.405-17.826,18.44-21.835c1.048-0.42,2.505-1.099,3.462-1.685
	c2.01-1.229,3.605-2.498,5.285-4.295c3.564-3.807,2.848-9.63,2.848-9.63s2.17,0.969,3.859,4.238
	c1.579,3.058,1.996,7.588-0.637,12.954c11.07,0.064,20.616,5.644,31.127,7.234c10.455,1.584,19.729-1.138,27.027-8.729
	c7.122-7.403,5.186-17.488-3.568-21.465c-1.654-0.751-3.361-1.079-5.153-0.807c-3.15,0.476-6.253,3.415-6.185,6.116
	c0.085,3.347,2.646,4.445,5.345,5.169c1.49,0.401,3.055,0.526,4.581,0.775c-4.996,8.091-16.527,8.817-21.539,2.155
	c-2.986-3.968-1.939-10.493,2.352-15.137c4.848-5.247,10.803-7.099,17.797-5.555c0.604,0.134,1.215,0.255,1.826,0.365
	c0.092,0.017,0.199-0.045,0.357-0.086c-6.178-6.565-6.473-14.673-6.168-22.959c0.081-2.18,0.081-2.18,0.081-2.18s0,0,1.917,1.04
	c7.287,3.956,14.117,8.336,16.621,16.999c0.115-0.115,0.223-0.177,0.254-0.266c0.217-0.582,0.424-1.169,0.617-1.758
	c2.231-6.805,6.857-10.988,13.842-12.488c6.181-1.329,12.331,1.092,14.228,5.682c3.181,7.707-3.315,17.262-12.823,17.443
	c0.562-1.44,1.251-2.852,1.664-4.339c0.75-2.69,1.109-5.455-1.727-7.231c-2.291-1.436-6.4-0.261-8.414,2.207
	c-1.148,1.404-1.734,3.041-1.93,4.847c-1.033,9.56,6.662,16.36,16.658,14.001c10.25-2.416,17.314-9.013,21.273-18.816
	c3.985-9.859,4.041-20.914,9.622-30.475c-5.959-0.466-9.646-3.133-11.474-6.047c-1.953-3.119-1.682-5.48-1.682-5.48
	s4.646,3.583,9.74,2.45c2.398-0.529,4.304-1.255,6.385-2.359c0.992-0.526,2.316-1.435,3.212-2.123
	c8.56-6.596,17.844-7.957,28.181-4.753c5.648,1.749,11.321,0.063,16.719-2.021C270.06,530.756,275.49,527.557,280.629,523.681z"/>
<path fill-rule="evenodd" clip-rule="evenodd" fill="#006CA4" d="M857.862,383.179c2.07,16.404-18.87,40.117-42.268,37.325
	c2.26,11.451,3.485,22.872-1.413,33.856c-1.712,3.835-4.096,7.043-7.132,10.053c-6.671,6.614-14.732,10.829-23.086,14.648
	c-8.485,3.878-17.241,7.178-25.095,12.369c-1.962,1.303-7.9,5.563-7.9,5.563s0.563-6.687,1.047-9.144
	c1.218-6.148,4.379-12.32,8.963-16.888c2.562-2.544,5.495-4.732,8.568-6.616c3.149-1.936,6.676-3.184,10.204-4.863
	c-10.464-8.016-14.501-17.202-11.762-26.17c2.046-6.676,8.691-11.334,16.686-11.695c-5.356,4.818-6.064,10.316-4.728,14.322
	c2.108,6.314,11.562,8.855,16.314,5.077c8.873-7.052,7.945-21.926-1.732-27.77c-9.06-5.47-19.307-4.117-27.21,3.615
	c-5.942,5.817-10.009,12.876-13.286,20.415c-7.058,16.228-11.106,33.841-14.443,45.051c-3.645,12.221-11.746,23.554-20.671,30.821
	c-1.195,0.98-2.451,2.017-3.661,2.988c-6.625,5.356-12.932,10.546-18.719,16.982c-8.582,9.539-6.552,19.076-6.552,19.076
	s-1.772-1.209-2.915-2.943c-2.884-4.394-5.033-9.745-2.711-16.942c2.393-7.423,2.595-2.725-5.345-5.984
	c-4.831-1.986-9.304-4.552-13.536-7.587c-2.736-1.958-5.703-4.358-8.561-6.828c0.67,3.717,1.225,7.494,1.52,10.845
	c0.455,5.188,0.387,10.344-0.367,15.513c-1.234,8.493-5.175,5.929,2.431,7.647c7.384,1.664,10.89,6.242,13.204,10.959
	c0.913,1.865,1.047,4.008,1.047,4.008s-7.174-6.601-19.754-4.074c-8.486,1.704-16.162,4.488-24.146,7.466
	c-1.451,0.546-2.984,1.1-4.437,1.628c-10.8,3.981-24.677,5.187-37.048,2.095c-11.35-2.83-28.57-8.313-46.131-10.502
	c-8.157-1.017-16.305-1.11-24.336,1.042c-10.674,2.862-17.061,10.995-16.965,21.579c0.105,11.301,12.433,19.676,23.018,15.629
	c5.674-2.167,8.3-11.598,3.938-16.627c-2.766-3.189-7.859-5.379-14.732-3.222c4.384-6.699,11.776-10.048,18.561-8.407
	c9.113,2.209,14.963,10.362,16.535,23.447c3.242-2.181,6.11-4.58,9.38-6.309c3.192-1.687,6.564-3.095,10.056-4.002
	c6.268-1.621,13.19-1.2,19.102,0.884c2.361,0.832,8.402,3.754,8.402,3.754s-6.691,2.941-8.811,3.967
	c-8.467,4.117-15.765,9.97-23.423,15.299c-7.54,5.247-15.272,10.04-24.361,12.412c-4.135,1.082-8.11,1.5-12.284,1.022
	c-11.947-1.378-21.154-8.248-29.857-16.023c-9.506,21.557-40.582,27.509-53.646,17.376c9.967-4.103,19.211-9.203,27.561-15.793
	c7.601-6.002,14.873-12.744,17.164-22.375c4.198-17.632,14.076-29.855,30.885-36.57c1.756-0.703,4.195-1.839,5.799-2.819
	c3.365-2.061,6.037-4.185,8.851-7.194c5.972-6.376,4.769-16.128,4.769-16.128s3.636,1.621,6.466,7.098
	c2.644,5.12,3.342,12.709-1.068,21.695c18.542,0.107,34.53,9.452,52.135,12.117c17.511,2.654,33.041-1.906,45.267-14.621
	c11.928-12.399,8.684-29.289-5.979-35.95c-2.77-1.257-5.627-1.808-8.631-1.351c-5.275,0.797-10.473,5.719-10.358,10.243
	c0.144,5.604,4.435,7.446,8.952,8.658c2.496,0.673,5.116,0.881,7.673,1.298c-8.368,13.552-27.681,14.768-36.075,3.609
	c-5.002-6.645-3.246-17.573,3.939-25.351c8.119-8.789,18.094-11.889,29.807-9.304c1.012,0.224,2.034,0.427,3.059,0.61
	c0.154,0.029,0.334-0.073,0.6-0.142c-10.349-10.997-10.842-24.576-10.33-38.453c0.135-3.652,0.135-3.652,0.135-3.652
	s0,0,3.211,1.743c12.203,6.625,23.645,13.962,27.838,28.472c0.192-0.194,0.372-0.297,0.426-0.445
	c0.363-0.976,0.709-1.959,1.031-2.943c3.738-11.398,11.486-18.404,23.184-20.918c10.353-2.225,20.653,1.83,23.83,9.516
	c5.326,12.909-5.555,28.911-21.478,29.216c0.94-2.412,2.095-4.775,2.788-7.267c1.256-4.507,1.857-9.137-2.893-12.113
	c-3.836-2.402-10.72-0.435-14.092,3.698c-1.922,2.353-2.904,5.093-3.23,8.117c-1.733,16.011,11.155,27.401,27.898,23.45
	c17.166-4.047,28.998-15.096,35.63-31.515c6.675-16.513,6.769-35.03,16.114-51.042c-9.979-0.78-16.154-5.246-19.215-10.126
	c-3.273-5.225-2.817-9.179-2.817-9.179s7.78,6,16.313,4.104c4.018-0.886,7.208-2.102,10.693-3.953
	c1.661-0.88,3.881-2.402,5.38-3.555c14.336-11.047,29.886-13.327,47.198-7.962c9.459,2.93,18.961,0.105,28.001-3.384
	C840.161,395.028,849.258,389.67,857.862,383.179z"/>
<path fill-rule="evenodd" clip-rule="evenodd" fill="#F17F10" d="M522.131,511.903c3.612,28.621-32.924,69.993-73.745,65.124
	c3.942,19.979,6.081,39.903-2.465,59.068c-2.987,6.692-7.147,12.29-12.444,17.541c-11.639,11.539-25.703,18.893-40.278,25.558
	c-14.806,6.766-30.081,12.523-43.782,21.58c-3.424,2.273-13.785,9.705-13.785,9.705s0.98-11.666,1.828-15.951
	c2.123-10.729,7.639-21.497,15.637-29.466c4.469-4.439,9.587-8.258,14.949-11.545c5.494-3.376,11.647-5.552,17.803-8.483
	c-18.256-13.985-25.299-30.012-20.521-45.66c3.569-11.648,15.164-19.776,29.112-20.404c-9.348,8.406-10.582,17.999-8.249,24.988
	c3.679,11.017,20.172,15.45,28.466,8.858c15.479-12.304,13.861-38.257-3.023-48.452c-15.807-9.543-33.685-7.184-47.475,6.308
	c-10.367,10.149-17.463,22.467-23.181,35.618c-12.313,28.313-19.378,59.042-25.2,78.602c-6.358,21.322-20.494,41.096-36.064,53.775
	c-2.086,1.711-4.277,3.518-6.389,5.213c-11.559,9.346-22.562,18.4-32.658,29.631c-14.973,16.643-11.432,33.283-11.432,33.283
	s-3.092-2.109-5.086-5.137c-5.031-7.664-8.78-17.002-4.73-29.559c4.176-12.951,4.528-4.754-9.324-10.441
	c-8.43-3.467-16.232-7.941-23.617-13.238c-4.773-3.416-9.951-7.604-14.936-11.912c1.169,6.484,2.138,13.074,2.652,18.92
	c0.793,9.051,0.673,18.049-0.641,27.066c-2.155,14.818-9.029,10.344,4.24,13.342c12.881,2.904,18.998,10.893,23.038,19.121
	c1.593,3.254,1.825,6.992,1.825,6.992s-12.516-11.516-34.464-7.107c-14.806,2.973-28.2,7.83-42.129,13.025
	c-2.534,0.953-5.208,1.918-7.741,2.84c-18.842,6.947-43.055,9.049-64.639,3.654c-19.801-4.938-49.848-14.502-80.484-18.322
	c-14.233-1.773-28.447-1.938-42.461,1.818c-18.624,4.994-29.766,19.184-29.6,37.648c0.186,19.717,21.691,34.33,40.16,27.27
	c9.898-3.781,14.48-20.234,6.869-29.01c-4.824-5.564-13.712-9.385-25.705-5.621c7.65-11.688,20.548-17.531,32.384-14.668
	c15.899,3.854,26.108,18.078,28.851,40.908c5.655-3.805,10.66-7.99,16.365-11.006c5.569-2.943,11.453-5.4,17.545-6.982
	c10.934-2.828,23.013-2.094,33.325,1.541c4.12,1.453,14.661,6.551,14.661,6.551s-11.676,5.131-15.373,6.92
	c-14.772,7.184-27.504,17.395-40.865,26.693c-13.156,9.154-26.646,17.516-42.504,21.654c-7.215,1.889-14.152,2.617-21.434,1.785
	c-20.846-2.404-36.908-14.391-52.094-27.957c-16.583,37.611-70.805,47.996-93.598,30.316c17.391-7.158,33.518-16.057,48.085-27.555
	c13.262-10.471,25.951-22.234,29.948-39.037c7.324-30.764,24.559-52.09,53.885-63.807c3.063-1.227,7.318-3.207,10.117-4.918
	c5.873-3.596,10.533-7.301,15.441-12.553c10.419-11.125,8.321-28.139,8.321-28.139s6.343,2.828,11.28,12.383
	c4.611,8.934,5.83,22.174-1.863,37.854c32.35,0.188,60.244,16.49,90.961,21.141c30.551,4.631,57.646-3.326,78.978-25.51
	c20.811-21.633,15.15-51.102-10.431-62.723c-4.834-2.193-9.818-3.154-15.059-2.357c-9.205,1.391-18.272,9.979-18.072,17.871
	c0.25,9.779,7.736,12.992,15.619,15.107c4.354,1.174,8.926,1.537,13.387,2.264c-14.601,23.645-48.297,25.766-62.943,6.297
	c-8.725-11.592-5.663-30.66,6.874-44.229c14.165-15.336,31.569-20.742,52.005-16.232c1.767,0.389,3.549,0.744,5.337,1.064
	c0.271,0.051,0.583-0.127,1.046-0.248c-18.055-19.186-18.916-42.878-18.023-67.09c0.235-6.372,0.235-6.372,0.235-6.372
	s0,0,5.603,3.039c21.291,11.561,41.253,24.361,48.568,49.679c0.337-0.34,0.65-0.52,0.744-0.777c0.634-1.703,1.236-3.418,1.8-5.137
	c6.522-19.888,20.04-32.11,40.449-36.496c18.062-3.881,36.034,3.192,41.576,16.603c9.292,22.522-9.69,50.442-37.473,50.974
	c1.642-4.209,3.655-8.332,4.864-12.678c2.192-7.863,3.241-15.941-5.047-21.135c-6.693-4.192-18.703-0.758-24.585,6.453
	c-3.354,4.104-5.068,8.885-5.638,14.162c-3.023,27.934,19.463,47.809,48.676,40.914c29.949-7.061,50.594-26.338,62.164-54.984
	c11.645-28.812,11.809-61.119,28.116-89.055c-17.413-1.361-28.187-9.153-33.525-17.669c-5.71-9.116-4.916-16.013-4.916-16.013
	s13.575,10.469,28.462,7.159c7.012-1.547,12.577-3.668,18.658-6.897c2.898-1.536,6.77-4.191,9.387-6.201
	c25.012-19.274,52.143-23.251,82.348-13.892c16.504,5.111,33.082,0.184,48.854-5.903
	C491.248,532.577,507.117,523.229,522.131,511.903z"/>
<path fill-rule="evenodd" clip-rule="evenodd" fill="#F17F10" d="M694.75,534.928c2.189,17.348-19.957,42.426-44.699,39.475
	c2.39,12.108,3.686,24.187-1.494,35.803c-1.811,4.057-4.332,7.45-7.543,10.633c-7.056,6.995-15.58,11.452-24.415,15.492
	c-8.974,4.1-18.232,7.59-26.538,13.079c-2.075,1.378-8.355,5.884-8.355,5.884s0.595-7.071,1.107-9.67
	c1.287-6.503,4.631-13.029,9.479-17.859c2.709-2.69,5.812-5.004,9.062-6.997c3.33-2.047,7.06-3.367,10.791-5.144
	c-11.065-8.477-15.335-18.19-12.438-27.676c2.163-7.062,9.191-11.987,17.646-12.368c-5.666,5.096-6.414,10.91-5,15.146
	c2.229,6.678,12.227,9.365,17.254,5.369c9.383-7.457,8.402-23.188-1.833-29.368c-9.581-5.785-20.417-4.354-28.775,3.823
	c-6.284,6.152-10.585,13.618-14.052,21.589c-7.463,17.161-11.744,35.789-15.274,47.645c-3.854,12.924-12.423,24.908-21.859,32.594
	c-1.265,1.037-2.593,2.133-3.873,3.16c-7.006,5.665-13.675,11.153-19.796,17.96c-9.074,10.088-6.928,20.174-6.928,20.174
	s-1.875-1.277-3.083-3.111c-3.05-4.646-5.322-10.305-2.868-17.918c2.531-7.85,2.745-2.881-5.651-6.328
	c-5.11-2.102-9.84-4.814-14.315-8.023c-2.893-2.073-6.031-4.61-9.053-7.222c0.709,3.93,1.296,7.925,1.607,11.468
	c0.48,5.486,0.408,10.941-0.389,16.406c-1.306,8.982-5.473,6.271,2.57,8.088c7.809,1.76,11.516,6.602,13.965,11.59
	c0.965,1.973,1.105,4.238,1.105,4.238s-7.586-6.98-20.889-4.309c-8.975,1.803-17.094,4.746-25.537,7.896
	c-1.535,0.576-3.156,1.162-4.691,1.721c-11.422,4.209-26.098,5.484-39.18,2.215c-12.003-2.992-30.215-8.791-48.785-11.105
	c-8.627-1.076-17.244-1.174-25.736,1.102c-11.289,3.027-18.043,11.627-17.943,22.82c0.113,11.951,13.149,20.809,24.344,16.527
	c5.999-2.291,8.777-12.264,4.164-17.582c-2.926-3.373-8.313-5.688-15.581-3.406c4.637-7.086,12.454-10.627,19.629-8.893
	c9.638,2.336,15.825,10.959,17.487,24.797c3.428-2.307,6.462-4.844,9.919-6.672c3.376-1.783,6.942-3.273,10.636-4.232
	c6.627-1.713,13.948-1.268,20.199,0.936c2.498,0.879,8.887,3.971,8.887,3.971s-7.076,3.109-9.318,4.195
	c-8.955,4.352-16.672,10.541-24.771,16.178c-7.974,5.549-16.151,10.617-25.763,13.125c-4.373,1.146-8.578,1.588-12.991,1.082
	c-12.636-1.457-22.372-8.723-31.577-16.945c-10.051,22.797-42.916,29.092-56.732,18.377c10.541-4.338,20.316-9.734,29.146-16.703
	c8.038-6.348,15.729-13.477,18.152-23.662c4.439-18.646,14.887-31.572,32.662-38.676c1.856-0.742,4.436-1.943,6.131-2.98
	c3.561-2.178,6.386-4.426,9.361-7.607c6.314-6.744,5.043-17.057,5.043-17.057s3.845,1.715,6.838,7.506
	c2.795,5.414,3.533,13.439-1.13,22.943c19.608,0.115,36.517,9.996,55.135,12.814c18.519,2.807,34.942-2.016,47.872-15.461
	c12.613-13.113,9.184-30.976-6.322-38.021c-2.931-1.33-5.952-1.912-9.128-1.43c-5.579,0.844-11.075,6.049-10.955,10.834
	c0.151,5.927,4.689,7.874,9.468,9.157c2.641,0.711,5.41,0.932,8.114,1.371c-8.85,14.334-29.274,15.619-38.151,3.818
	c-5.289-7.027-3.434-18.585,4.166-26.81c8.586-9.297,19.135-12.574,31.521-9.84c1.07,0.236,2.152,0.449,3.235,0.645
	c0.163,0.031,0.354-0.076,0.634-0.148c-10.943-11.63-11.465-25.99-10.925-40.666c0.143-3.862,0.143-3.862,0.143-3.862
	s0,0,3.396,1.842c12.905,7.008,25.005,14.767,29.438,30.111c0.205-0.205,0.395-0.313,0.451-0.471
	c0.385-1.031,0.75-2.072,1.091-3.112c3.954-12.055,12.147-19.464,24.519-22.122c10.947-2.353,21.841,1.935,25.2,10.063
	c5.633,13.651-5.874,30.574-22.713,30.896c0.994-2.551,2.216-5.051,2.948-7.684c1.328-4.767,1.965-9.663-3.06-12.811
	c-4.057-2.542-11.337-0.461-14.901,3.91c-2.033,2.488-3.072,5.388-3.418,8.585c-1.832,16.931,11.799,28.979,29.506,24.8
	c18.152-4.281,30.666-15.965,37.68-33.329c7.058-17.462,7.156-37.046,17.041-53.979c-10.554-0.825-17.084-5.549-20.32-10.71
	c-3.461-5.525-2.979-9.706-2.979-9.706s8.228,6.345,17.251,4.34c4.25-0.938,7.624-2.225,11.31-4.182
	c1.757-0.931,4.104-2.54,5.69-3.759c15.16-11.683,31.605-14.093,49.914-8.419c10.003,3.098,20.052,0.111,29.611-3.578
	C676.03,547.459,685.65,541.793,694.75,534.928z"/>
<path fill-rule="evenodd" clip-rule="evenodd" fill="#F17F10" d="M941.182,491.685c6.063,48.029-55.252,117.462-123.758,109.291
	c6.617,33.523,10.205,66.964-4.135,99.125c-5.015,11.232-11.996,20.627-20.884,29.439c-19.535,19.367-43.136,31.707-67.597,42.893
	c-24.845,11.35-50.479,21.014-73.474,36.211c-5.747,3.818-23.134,16.289-23.134,16.289s1.646-19.576,3.066-26.771
	c3.564-18.004,12.822-36.074,26.243-49.447c7.499-7.447,16.089-13.854,25.087-19.371c9.22-5.668,19.547-9.322,29.876-14.242
	c-30.636-23.467-42.456-50.362-34.438-76.624c5.989-19.551,25.449-33.188,48.855-34.243c-15.686,14.108-17.757,30.206-13.843,41.936
	c6.174,18.487,33.852,25.929,47.771,14.864c25.976-20.646,23.262-64.2-5.076-81.31c-26.525-16.017-56.527-12.056-79.668,10.586
	c-17.4,17.033-29.307,37.703-38.903,59.771c-20.663,47.514-32.519,99.088-42.29,131.912c-10.67,35.781-34.394,68.965-60.521,90.242
	c-3.502,2.871-7.179,5.902-10.723,8.75c-19.396,15.682-37.862,30.877-54.807,49.721c-25.125,27.932-19.184,55.855-19.184,55.855
	s-5.189-3.539-8.534-8.617c-8.444-12.861-14.735-28.529-7.939-49.609c7.008-21.729,7.599-7.975-15.647-17.52
	c-14.148-5.816-27.244-13.326-39.634-22.215c-8.011-5.734-16.7-12.758-25.066-19.99c1.963,10.883,3.589,21.941,4.452,31.75
	c1.33,15.189,1.129,30.289-1.075,45.422c-3.616,24.869-15.151,17.361,7.114,22.391c21.619,4.875,31.883,18.279,38.664,32.092
	c2.672,5.461,3.063,11.734,3.063,11.734s-21.003-19.328-57.836-11.932c-24.846,4.992-47.325,13.143-70.701,21.861
	c-4.252,1.596-8.739,3.217-12.991,4.764c-31.62,11.656-72.254,15.186-108.475,6.133c-33.23-8.285-83.654-24.34-135.067-30.744
	c-23.887-2.98-47.742-3.254-71.256,3.049c-31.256,8.379-49.952,32.191-49.676,63.182c0.312,33.086,36.404,57.609,67.397,45.758
	c16.608-6.342,24.3-33.953,11.528-48.68c-8.099-9.336-23.013-15.748-43.139-9.432c12.838-19.617,34.481-29.422,54.346-24.617
	c26.684,6.467,43.813,30.342,48.415,68.65c9.491-6.385,17.892-13.41,27.464-18.469c9.348-4.939,19.221-9.063,29.445-11.721
	c18.349-4.742,38.619-3.51,55.926,2.59c6.914,2.436,24.604,10.994,24.604,10.994s-19.593,8.611-25.799,11.615
	c-24.793,12.051-46.157,29.188-68.581,44.793c-22.076,15.359-44.716,29.395-71.327,36.338c-12.109,3.172-23.75,4.395-35.969,2.996
	c-34.984-4.033-61.939-24.15-87.424-46.916c-27.83,63.117-118.822,80.545-157.074,50.877c29.185-12.01,56.25-26.947,80.695-46.242
	c22.256-17.574,43.551-37.314,50.259-65.512c12.291-51.625,41.215-87.416,90.43-107.08c5.14-2.057,12.282-5.383,16.976-8.252
	c9.856-6.031,17.679-12.254,25.917-21.064c17.483-18.672,13.964-47.221,13.964-47.221s10.643,4.744,18.93,20.777
	c7.736,14.992,9.783,37.213-3.128,63.525c54.288,0.316,101.102,27.676,152.648,35.479c51.271,7.771,96.743-5.58,132.541-42.809
	c34.923-36.303,25.425-85.758-17.505-105.262c-8.113-3.68-16.479-5.295-25.271-3.957c-15.447,2.336-30.664,16.748-30.33,29.994
	c0.42,16.406,12.982,21.799,26.213,25.35c7.309,1.971,14.979,2.582,22.465,3.799c-24.502,39.684-81.049,43.244-105.629,10.568
	c-14.644-19.453-9.504-51.451,11.534-74.223c23.772-25.736,52.979-34.811,87.274-27.24c2.963,0.654,5.957,1.244,8.957,1.783
	c0.451,0.088,0.979-0.213,1.754-0.412c-30.299-32.199-31.743-71.959-30.246-112.59c0.395-10.693,0.395-10.693,0.395-10.693
	s0,0,9.403,5.1c35.729,19.4,69.228,40.883,81.505,83.367c0.566-0.568,1.092-0.869,1.25-1.303c1.063-2.855,2.074-5.738,3.02-8.617
	c10.947-33.375,33.63-53.889,67.881-61.248c30.313-6.514,60.471,5.355,69.771,27.861c15.596,37.797-16.262,84.652-62.883,85.545
	c2.752-7.066,6.135-13.984,8.16-21.277c3.681-13.195,5.44-26.752-8.469-35.467c-11.231-7.039-31.387-1.277-41.258,10.826
	c-5.629,6.889-8.505,14.914-9.461,23.766c-5.073,46.881,32.664,80.234,81.689,68.664c50.258-11.85,84.904-44.197,104.322-92.275
	c19.54-48.346,19.814-102.568,47.182-149.448c-29.221-2.285-47.301-15.363-56.261-29.652c-9.583-15.298-8.249-26.873-8.249-26.873
	s22.78,17.566,47.764,12.016c11.765-2.598,21.106-6.159,31.311-11.577c4.863-2.577,11.361-7.032,15.753-10.407
	c41.976-32.345,87.505-39.018,138.196-23.309c27.694,8.576,55.516,0.308,81.984-9.906
	C889.354,526.379,915.986,510.691,941.182,491.685z"/>
<path fill-rule="evenodd" clip-rule="evenodd" fill="#E5490A" d="M841.471,211.689c1.103,8.735-10.049,21.363-22.508,19.876
	c1.203,6.097,1.856,12.179-0.752,18.028c-0.912,2.042-2.182,3.751-3.798,5.354c-3.553,3.522-7.845,5.767-12.294,7.801
	c-4.518,2.064-9.18,3.822-13.361,6.586c-1.046,0.694-4.208,2.962-4.208,2.962s0.3-3.561,0.558-4.869
	c0.648-3.274,2.332-6.561,4.773-8.993c1.363-1.354,2.926-2.52,4.563-3.523c1.676-1.031,3.555-1.695,5.434-2.59
	c-5.572-4.268-7.723-9.16-6.264-13.936c1.09-3.556,4.629-6.036,8.885-6.228c-2.852,2.566-3.229,5.493-2.518,7.626
	c1.123,3.362,6.156,4.716,8.688,2.704c4.724-3.755,4.23-11.676-0.923-14.788c-4.824-2.913-10.281-2.193-14.489,1.925
	c-3.165,3.098-5.33,6.857-7.075,10.87c-3.758,8.641-5.914,18.021-7.691,23.99c-1.94,6.507-6.255,12.542-11.006,16.412
	c-0.638,0.522-1.307,1.074-1.951,1.591c-3.527,2.852-6.886,5.616-9.967,9.043c-4.57,5.08-3.489,10.158-3.489,10.158
	s-0.944-0.644-1.552-1.567c-1.535-2.339-2.68-5.188-1.444-9.022c1.274-3.952,1.382-1.45-2.846-3.186
	c-2.573-1.058-4.954-2.424-7.208-4.04c-1.457-1.043-3.037-2.32-4.559-3.636c0.357,1.979,0.652,3.99,0.81,5.774
	c0.241,2.762,0.205,5.508-0.195,8.261c-0.657,4.523-2.756,3.157,1.294,4.072c3.932,0.886,5.799,3.324,7.031,5.836
	c0.486,0.993,0.557,2.134,0.557,2.134s-3.819-3.515-10.518-2.17c-4.52,0.908-8.607,2.39-12.858,3.976
	c-0.773,0.29-1.589,0.585-2.362,0.866c-5.751,2.12-13.141,2.762-19.729,1.115c-6.043-1.507-15.214-4.426-24.564-5.591
	c-4.344-0.542-8.682-0.592-12.959,0.555c-5.684,1.523-9.084,5.854-9.034,11.49c0.057,6.018,6.62,10.478,12.257,8.322
	c3.021-1.154,4.42-6.175,2.098-8.854c-1.473-1.698-4.186-2.864-7.846-1.715c2.334-3.568,6.271-5.351,9.883-4.477
	c4.854,1.176,7.969,5.518,8.806,12.485c1.726-1.161,3.254-2.439,4.995-3.359c1.699-0.898,3.495-1.648,5.354-2.132
	c3.337-0.862,7.024-0.638,10.171,0.471c1.258,0.443,4.475,2,4.475,2s-3.563,1.566-4.691,2.112c-4.51,2.191-8.395,5.308-12.473,8.146
	c-4.016,2.793-8.133,5.346-12.973,6.609c-2.201,0.577-4.318,0.799-6.541,0.545c-6.362-0.734-11.265-4.393-15.899-8.533
	c-5.062,11.479-21.61,14.648-28.566,9.253c5.308-2.185,10.229-4.901,14.675-8.41c4.049-3.196,7.922-6.786,9.141-11.915
	c2.236-9.389,7.496-15.898,16.447-19.474c0.934-0.374,2.232-0.979,3.086-1.5c1.793-1.097,3.216-2.229,4.715-3.831
	c3.18-3.396,2.539-8.588,2.539-8.588s1.936,0.863,3.442,3.779c1.407,2.727,1.779,6.768-0.569,11.553
	c9.874,0.058,18.388,5.034,27.762,6.453c9.325,1.413,17.595-1.015,24.105-7.785c6.352-6.603,4.623-15.597-3.184-19.144
	c-1.476-0.669-2.997-0.963-4.596-0.719c-2.811,0.425-5.577,3.045-5.517,5.455c0.077,2.984,2.361,3.964,4.767,4.61
	c1.33,0.358,2.725,0.47,4.086,0.691c-4.455,7.217-14.74,7.864-19.21,1.922c-2.663-3.538-1.729-9.357,2.098-13.499
	c4.323-4.681,9.636-6.331,15.872-4.954c0.539,0.119,1.084,0.226,1.629,0.324c0.082,0.016,0.178-0.039,0.319-0.075
	c-5.511-5.856-5.772-13.087-5.501-20.477c0.072-1.945,0.072-1.945,0.072-1.945s0,0,1.71,0.927
	c6.498,3.529,12.591,7.436,14.823,15.162c0.103-0.104,0.198-0.158,0.227-0.237c0.193-0.519,0.377-1.043,0.549-1.567
	c1.992-6.07,6.117-9.801,12.346-11.139c5.514-1.185,10.998,0.974,12.689,5.067c2.836,6.874-2.957,15.395-11.437,15.558
	c0.501-1.285,1.116-2.543,1.484-3.87c0.669-2.4,0.989-4.865-1.54-6.45c-2.043-1.28-5.709-0.232-7.504,1.969
	c-1.023,1.253-1.547,2.712-1.721,4.322c-0.922,8.526,5.941,14.592,14.857,12.488c9.14-2.155,15.441-8.038,18.973-16.782
	c3.553-8.792,3.604-18.654,8.58-27.18c-5.314-0.416-8.602-2.794-10.232-5.393c-1.742-2.782-1.5-4.888-1.5-4.888
	s4.144,3.195,8.688,2.186c2.139-0.473,3.838-1.12,5.693-2.105c0.885-0.469,2.066-1.279,2.865-1.893
	c7.635-5.882,15.914-7.096,25.134-4.239c5.036,1.56,10.097,0.056,14.91-1.802C832.045,218,836.889,215.146,841.471,211.689z"/>
<path fill-rule="evenodd" clip-rule="evenodd" fill="#EB6819" d="M287.672,48.401c2.505,19.852-22.836,48.549-51.15,45.171
	c2.734,13.856,4.218,27.677-1.709,40.97c-2.072,4.642-4.958,8.524-8.633,12.167c-8.073,8.005-17.827,13.105-27.938,17.728
	c-10.269,4.691-20.863,8.685-30.367,14.967c-2.375,1.578-9.562,6.732-9.562,6.732s0.681-8.092,1.269-11.065
	c1.473-7.441,5.299-14.91,10.846-20.437c3.1-3.079,6.65-5.726,10.369-8.006c3.811-2.343,8.078-3.853,12.348-5.886
	c-12.662-9.7-17.548-20.816-14.233-31.67c2.476-8.081,10.519-13.716,20.192-14.152c-6.482,5.831-7.34,12.483-5.721,17.332
	c2.552,7.641,13.99,10.717,19.744,6.145c10.735-8.534,9.613-26.536-2.1-33.606c-10.962-6.62-23.362-4.983-32.926,4.375
	c-7.192,7.04-12.113,15.583-16.08,24.704c-8.539,19.637-13.439,40.953-17.479,54.52c-4.41,14.789-14.215,28.504-25.014,37.298
	c-1.447,1.188-2.967,2.44-4.432,3.617c-8.018,6.481-15.649,12.762-22.652,20.551c-10.385,11.544-7.929,23.084-7.929,23.084
	s-2.146-1.463-3.528-3.561c-3.488-5.316-6.09-11.792-3.281-20.504c2.898-8.98,3.143-3.296-6.467-7.24
	c-5.847-2.404-11.26-5.509-16.381-9.182c-3.311-2.37-6.902-5.273-10.359-8.263c0.811,4.498,1.483,9.068,1.84,13.123
	c0.549,6.277,0.466,12.518-0.443,18.773c-1.495,10.279-6.264,7.175,2.939,9.254c8.935,2.014,13.178,7.555,15.98,13.263
	c1.104,2.257,1.266,4.85,1.266,4.85s-8.682-7.988-23.904-4.931c-10.27,2.064-19.561,5.432-29.221,9.036
	c-1.758,0.659-3.612,1.329-5.37,1.968c-13.068,4.817-29.863,6.276-44.833,2.535C-50.98,268.635-71.821,262-93.07,259.353
	c-9.873-1.232-19.732-1.345-29.451,1.26c-12.918,3.462-20.646,13.305-20.531,26.113c0.129,13.675,15.046,23.811,27.855,18.913
	c6.865-2.622,10.044-14.034,4.766-20.121c-3.348-3.858-9.512-6.508-17.83-3.898c5.307-8.108,14.251-12.16,22.461-10.175
	c11.029,2.673,18.109,12.541,20.011,28.374c3.923-2.639,7.396-5.542,11.351-7.633c3.864-2.042,7.944-3.746,12.17-4.845
	c7.584-1.959,15.963-1.45,23.115,1.071c2.857,1.006,10.169,4.544,10.169,4.544s-8.099,3.559-10.663,4.801
	c-10.247,4.98-19.076,12.063-28.345,18.513c-9.124,6.349-18.481,12.149-29.48,15.02c-5.005,1.311-9.815,1.815-14.866,1.238
	c-14.459-1.668-25.6-9.982-36.133-19.391c-11.502,26.087-49.109,33.29-64.92,21.028c12.063-4.964,23.249-11.138,33.352-19.113
	c9.199-7.264,18-15.422,20.773-27.077c5.079-21.337,17.033-36.129,37.375-44.257c2.123-0.85,5.076-2.225,7.016-3.41
	c4.074-2.493,7.307-5.064,10.713-8.706c7.226-7.718,5.77-19.517,5.77-19.517s4.4,1.961,7.824,8.588
	c3.198,6.196,4.043,15.38-1.293,26.254c22.438,0.131,41.787,11.44,63.092,14.665c21.19,3.211,39.984-2.307,54.779-17.692
	c14.434-15.005,10.508-35.445-7.234-43.507c-3.354-1.521-6.811-2.188-10.445-1.634c-6.385,0.965-12.674,6.921-12.535,12.396
	c0.174,6.781,5.365,9.009,10.833,10.478c3.021,0.814,6.19,1.067,9.286,1.57c-10.127,16.401-33.499,17.873-43.658,4.368
	c-6.052-8.04-3.928-21.266,4.768-30.677c9.826-10.637,21.896-14.388,36.072-11.258c1.223,0.27,2.461,0.514,3.701,0.737
	c0.187,0.037,0.404-0.088,0.725-0.17C4.997,172.892,4.4,156.46,5.018,139.667c0.164-4.42,0.164-4.42,0.164-4.42s0,0,3.887,2.107
	c14.768,8.02,28.613,16.898,33.686,34.457c0.234-0.235,0.452-0.359,0.518-0.539c0.439-1.18,0.857-2.372,1.248-3.561
	c4.524-13.794,13.898-22.273,28.057-25.315c12.527-2.692,24.992,2.214,28.836,11.516c6.446,15.622-6.721,34.987-25.99,35.356
	c1.137-2.921,2.535-5.78,3.373-8.794c1.521-5.454,2.248-11.057-3.501-14.659c-4.642-2.909-12.972-0.528-17.051,4.474
	c-2.327,2.848-3.516,6.165-3.911,9.823c-2.097,19.376,13.501,33.161,33.764,28.38c20.771-4.898,35.092-18.268,43.117-38.138
	c8.076-19.981,8.188-42.392,19.5-61.768c-12.077-0.944-19.549-6.35-23.254-12.255c-3.96-6.323-3.408-11.108-3.408-11.108
	s9.415,7.26,19.74,4.967c4.863-1.074,8.725-2.545,12.941-4.785c2.011-1.065,4.695-2.906,6.512-4.302
	c17.348-13.368,36.166-16.125,57.117-9.633c11.446,3.544,22.944,0.127,33.885-4.094C266.25,62.741,277.258,56.258,287.672,48.401z"
	/>
<path fill-rule="evenodd" clip-rule="evenodd" fill="#AAA42B" d="M778.01-70.496C784-23.031,723.406,45.583,655.708,37.505
	c6.538,33.133,10.084,66.177-4.087,97.961c-4.954,11.1-11.854,20.383-20.637,29.09c-19.304,19.14-42.629,31.335-66.8,42.385
	c-24.554,11.221-49.886,20.768-72.61,35.789c-5.677,3.769-22.86,16.098-22.86,16.098s1.626-19.347,3.03-26.458
	c3.521-17.789,12.67-35.648,25.936-48.865c7.408-7.361,15.897-13.693,24.79-19.145c9.114-5.602,19.317-9.211,29.525-14.071
	c-30.274-23.195-41.958-49.773-34.034-75.723c5.921-19.317,25.15-32.796,48.279-33.839c-15.498,13.941-17.547,29.851-13.678,41.44
	c6.101,18.271,33.453,25.625,47.207,14.692c25.672-20.406,22.989-63.444-5.014-80.353c-26.214-15.829-55.862-11.912-78.731,10.461
	c-17.194,16.831-28.961,37.256-38.443,59.069c-20.421,46.955-32.136,97.92-41.794,130.351
	c-10.543,35.365-33.986,68.153-59.809,89.182c-3.458,2.839-7.093,5.835-10.595,8.648c-19.169,15.498-37.417,30.514-54.161,49.136
	c-24.83,27.604-18.959,55.196-18.959,55.196s-5.126-3.494-8.434-8.512c-8.342-12.715-14.561-28.199-7.846-49.025
	c6.928-21.479,7.51-7.881-15.463-17.316c-13.98-5.747-26.921-13.169-39.165-21.951c-7.918-5.667-16.505-12.611-24.772-19.758
	c1.941,10.757,3.547,21.685,4.4,31.377c1.313,15.013,1.115,29.933-1.063,44.889c-3.574,24.574-14.977,17.154,7.031,22.128
	c21.363,4.814,31.508,18.06,38.207,31.709c2.643,5.396,3.025,11.597,3.025,11.597s-20.754-19.098-57.153-11.789
	c-24.556,4.93-46.769,12.988-69.867,21.604c-4.202,1.58-8.638,3.179-12.839,4.708c-31.248,11.521-71.401,15.007-107.197,6.064
	c-32.84-8.19-82.669-24.057-133.479-30.388c-23.604-2.944-47.177-3.215-70.417,3.014c-30.884,8.282-49.362,31.813-49.088,62.438
	c0.308,32.699,35.974,56.932,66.604,45.223c16.414-6.271,24.013-33.555,11.392-48.108c-8.002-9.231-22.74-15.565-42.629-9.324
	c12.684-19.385,34.076-29.073,53.703-24.326c26.371,6.393,43.299,29.982,47.846,67.843c9.382-6.307,17.682-13.251,27.141-18.249
	c9.236-4.881,18.996-8.959,29.1-11.583c18.131-4.689,38.163-3.471,55.266,2.556c6.834,2.409,24.316,10.865,24.316,10.865
	s-19.364,8.512-25.497,11.479c-24.499,11.909-45.613,28.846-67.772,44.267c-21.816,15.182-44.191,29.049-70.49,35.913
	c-11.964,3.132-23.469,4.341-35.544,2.957c-34.569-3.987-61.21-23.863-86.394-46.362c-27.502,62.373-117.422,79.596-155.223,50.277
	c28.84-11.87,55.586-26.63,79.743-45.697c21.995-17.366,43.038-36.876,49.668-64.74c12.146-51.02,40.729-86.386,89.362-105.816
	c5.08-2.034,12.139-5.321,16.777-8.16c9.74-5.958,17.469-12.108,25.611-20.816c17.277-18.446,13.799-46.666,13.799-46.666
	s10.52,4.695,18.707,20.539c7.648,14.814,9.67,36.77-3.091,62.774c53.649,0.313,99.911,27.351,150.851,35.062
	c50.666,7.678,95.604-5.515,130.979-42.305c34.514-35.879,25.127-84.749-17.297-104.022c-8.016-3.64-16.285-5.231-24.973-3.909
	c-15.267,2.305-30.305,16.547-29.973,29.64c0.414,16.218,12.83,21.543,25.903,25.05c7.222,1.947,14.803,2.551,22.199,3.758
	c-24.214,39.209-80.094,42.729-104.384,10.443c-14.471-19.227-9.393-50.851,11.398-73.352c23.492-25.43,52.354-34.401,86.246-26.922
	c2.93,0.65,5.887,1.237,8.85,1.77c0.448,0.083,0.969-0.213,1.734-0.412c-29.941-31.818-31.369-71.111-29.891-111.265
	c0.393-10.564,0.393-10.564,0.393-10.564s0,0,9.291,5.04c35.31,19.172,68.416,40.398,80.547,82.382
	c0.557-0.561,1.078-0.857,1.232-1.288c1.051-2.82,2.051-5.668,2.986-8.518c10.816-32.979,33.233-53.252,67.08-60.522
	c29.953-6.438,59.759,5.294,68.951,27.533c15.412,37.35-16.071,83.653-62.146,84.532c2.723-6.979,6.064-13.817,8.068-21.023
	c3.636-13.04,5.377-26.438-8.369-35.048c-11.102-6.953-31.018-1.259-40.773,10.701c-5.564,6.805-8.404,14.736-9.352,23.485
	c-5.012,46.329,32.281,79.286,80.729,67.852c49.668-11.711,83.906-43.68,103.094-91.187
	c19.311-47.779,19.582-101.355,46.627-147.688c-28.877-2.257-46.745-15.179-55.601-29.302c-9.47-15.116-8.151-26.558-8.151-26.558
	s22.514,17.361,47.202,11.875c11.627-2.565,20.857-6.083,30.942-11.438c4.806-2.547,11.229-6.949,15.565-10.285
	c41.483-31.966,86.474-38.561,136.569-23.037c27.369,8.477,54.861,0.304,81.02-9.793C726.791-36.21,753.109-51.715,778.01-70.496z"
	/>
<path fill-rule="evenodd" clip-rule="evenodd" fill="#AAA42B" d="M436.742,315.609c2.576,20.415-23.484,49.925-52.602,46.451
	c2.812,14.25,4.336,28.462-1.758,42.132c-2.131,4.774-5.098,8.767-8.877,12.512c-8.301,8.232-18.334,13.477-28.73,18.229
	c-10.56,4.827-21.455,8.932-31.229,15.393c-2.441,1.621-9.833,6.924-9.833,6.924s0.7-8.321,1.304-11.38
	c1.514-7.65,5.449-15.332,11.154-21.016c3.188-3.167,6.838-5.89,10.662-8.234c3.92-2.409,8.309-3.961,12.699-6.052
	c-13.021-9.976-18.046-21.407-14.639-32.569c2.547-8.308,10.818-14.105,20.766-14.554c-6.666,5.997-7.547,12.839-5.883,17.823
	c2.623,7.859,14.389,11.022,20.304,6.319c11.042-8.776,9.888-27.287-2.156-34.56c-11.274-6.807-24.026-5.123-33.862,4.5
	c-7.395,7.238-12.456,16.023-16.534,25.405c-8.784,20.195-13.821,42.115-17.976,56.064c-4.535,15.209-14.617,29.312-25.725,38.357
	c-1.486,1.222-3.05,2.509-4.556,3.719c-8.245,6.666-16.093,13.124-23.295,21.133c-10.679,11.873-8.154,23.74-8.154,23.74
	s-2.205-1.502-3.628-3.66c-3.588-5.469-6.262-12.129-3.373-21.086c2.979-9.238,3.229-3.389-6.651-7.448
	c-6.013-2.471-11.579-5.663-16.845-9.44c-3.405-2.438-7.099-5.423-10.654-8.499c0.835,4.628,1.525,9.328,1.893,13.496
	c0.564,6.458,0.479,12.874-0.457,19.308c-1.537,10.568-6.441,7.377,3.024,9.517c9.188,2.069,13.552,7.767,16.433,13.639
	c1.136,2.32,1.301,4.986,1.301,4.986s-8.927-8.213-24.582-5.07c-10.561,2.12-20.114,5.585-30.049,9.292
	c-1.808,0.68-3.715,1.367-5.522,2.024c-13.438,4.956-30.709,6.454-46.104,2.609c-14.125-3.522-35.557-10.347-57.409-13.071
	c-10.153-1.266-20.291-1.383-30.286,1.297c-13.283,3.563-21.23,13.684-21.113,26.855c0.133,14.063,15.473,24.486,28.646,19.449
	c7.059-2.697,10.328-14.431,4.899-20.691c-3.441-3.971-9.78-6.693-18.335-4.011c5.455-8.337,14.656-12.505,23.098-10.462
	c11.342,2.748,18.623,12.896,20.578,29.179c4.036-2.712,7.605-5.699,11.674-7.849c3.973-2.1,8.17-3.854,12.516-4.982
	c7.799-2.018,16.414-1.492,23.77,1.099c2.939,1.037,10.458,4.675,10.458,4.675s-8.329,3.661-10.966,4.937
	c-10.537,5.122-19.617,12.405-29.148,19.039c-9.384,6.53-19.007,12.493-30.318,15.445c-5.146,1.348-10.094,1.867-15.287,1.272
	c-14.869-1.715-26.326-10.265-37.158-19.94c-11.828,26.826-50.502,34.233-66.761,21.624c12.404-5.105,23.908-11.453,34.298-19.655
	c9.46-7.469,18.511-15.859,21.361-27.845c5.225-21.943,17.518-37.152,38.436-45.51c2.185-0.876,5.221-2.288,7.215-3.511
	c4.189-2.563,7.514-5.207,11.016-8.952c7.432-7.934,5.936-20.07,5.936-20.07s4.523,2.019,8.045,8.833
	c3.291,6.373,4.16,15.814-1.328,26.999c23.074,0.134,42.971,11.764,64.881,15.079c21.791,3.303,41.119-2.371,56.333-18.194
	c14.844-15.432,10.806-36.45-7.44-44.74c-3.447-1.566-7.004-2.25-10.74-1.681c-6.566,0.991-13.033,7.117-12.891,12.747
	c0.178,6.977,5.518,9.267,11.141,10.774c3.106,0.838,6.367,1.099,9.547,1.617c-10.414,16.864-34.447,18.377-44.895,4.491
	c-6.224-8.27-4.039-21.871,4.902-31.549c10.104-10.938,22.518-14.796,37.095-11.579c1.26,0.28,2.532,0.532,3.807,0.761
	c0.192,0.037,0.417-0.092,0.745-0.177c-12.878-13.685-13.491-30.584-12.855-47.854c0.168-4.544,0.168-4.544,0.168-4.544
	s0,0,3.996,2.167c15.188,8.246,29.426,17.375,34.644,35.433c0.239-0.242,0.464-0.369,0.53-0.553
	c0.451-1.214,0.883-2.438,1.284-3.665c4.652-14.184,14.294-22.903,28.851-26.03c12.884-2.77,25.703,2.277,29.656,11.842
	c6.629,16.063-6.912,35.979-26.729,36.357c1.171-3.003,2.607-5.943,3.47-9.043c1.563-5.608,2.313-11.37-3.599-15.074
	c-4.775-2.99-13.342-0.542-17.537,4.603c-2.393,2.927-3.615,6.337-4.022,10.101c-2.155,19.927,13.884,34.102,34.722,29.184
	c21.361-5.037,36.087-18.787,44.34-39.219c8.306-20.55,8.422-43.594,20.055-63.521c-12.42-0.97-20.105-6.528-23.914-12.603
	c-4.072-6.501-3.506-11.423-3.506-11.423s9.684,7.468,20.302,5.107c5.001-1.103,8.971-2.616,13.308-4.919
	c2.067-1.096,4.829-2.988,6.695-4.423c17.842-13.749,37.191-16.584,58.738-9.909c11.771,3.646,23.596,0.131,34.846-4.212
	C414.713,330.355,426.033,323.687,436.742,315.609z"/>
<path fill-rule="evenodd" clip-rule="evenodd" fill="#89AD91" d="M818.742,117.609c2.576,20.415-23.484,49.925-52.602,46.451
	c2.812,14.25,4.336,28.462-1.758,42.132c-2.131,4.774-5.098,8.767-8.877,12.512c-8.301,8.232-18.334,13.477-28.73,18.229
	c-10.56,4.827-21.455,8.932-31.229,15.393c-2.441,1.621-9.833,6.924-9.833,6.924s0.7-8.321,1.304-11.38
	c1.514-7.65,5.449-15.332,11.154-21.016c3.188-3.167,6.838-5.89,10.662-8.234c3.92-2.409,8.309-3.961,12.699-6.052
	c-13.021-9.976-18.046-21.407-14.639-32.569c2.547-8.308,10.818-14.105,20.766-14.554c-6.666,5.997-7.547,12.839-5.883,17.823
	c2.623,7.859,14.389,11.022,20.304,6.319c11.042-8.776,9.888-27.287-2.156-34.56c-11.274-6.807-24.026-5.123-33.862,4.5
	c-7.395,7.238-12.456,16.023-16.534,25.405c-8.784,20.195-13.821,42.115-17.976,56.064c-4.535,15.209-14.617,29.312-25.725,38.357
	c-1.486,1.222-3.05,2.509-4.556,3.719c-8.245,6.666-16.093,13.124-23.295,21.133c-10.679,11.873-8.154,23.74-8.154,23.74
	s-2.205-1.502-3.628-3.66c-3.588-5.469-6.262-12.129-3.373-21.086c2.979-9.238,3.229-3.389-6.651-7.448
	c-6.013-2.471-11.579-5.663-16.845-9.44c-3.405-2.438-7.099-5.423-10.654-8.499c0.835,4.628,1.525,9.328,1.893,13.496
	c0.564,6.458,0.479,12.874-0.457,19.308c-1.537,10.568-6.441,7.377,3.024,9.517c9.188,2.069,13.552,7.767,16.433,13.639
	c1.136,2.32,1.301,4.986,1.301,4.986s-8.927-8.213-24.582-5.07c-10.561,2.12-20.114,5.585-30.049,9.292
	c-1.808,0.68-3.715,1.367-5.522,2.024c-13.438,4.956-30.709,6.454-46.104,2.609c-14.125-3.522-35.557-10.347-57.409-13.071
	c-10.153-1.266-20.291-1.383-30.286,1.297c-13.283,3.563-21.23,13.684-21.113,26.855c0.133,14.063,15.473,24.486,28.646,19.449
	c7.059-2.697,10.328-14.431,4.899-20.691c-3.441-3.971-9.78-6.693-18.335-4.011c5.455-8.337,14.656-12.505,23.098-10.462
	c11.342,2.748,18.623,12.896,20.578,29.179c4.036-2.712,7.605-5.699,11.674-7.849c3.973-2.1,8.17-3.854,12.516-4.982
	c7.799-2.018,16.414-1.492,23.77,1.099c2.939,1.037,10.458,4.675,10.458,4.675s-8.329,3.661-10.966,4.937
	c-10.537,5.122-19.617,12.405-29.148,19.039c-9.384,6.53-19.007,12.493-30.318,15.445c-5.146,1.348-10.094,1.867-15.287,1.272
	c-14.869-1.715-26.326-10.265-37.158-19.94c-11.828,26.826-50.502,34.233-66.761,21.624c12.404-5.105,23.908-11.453,34.298-19.655
	c9.46-7.469,18.511-15.859,21.361-27.845c5.225-21.943,17.518-37.152,38.436-45.51c2.185-0.876,5.221-2.288,7.215-3.511
	c4.189-2.563,7.514-5.207,11.016-8.952c7.432-7.934,5.936-20.07,5.936-20.07s4.523,2.019,8.045,8.833
	c3.291,6.373,4.16,15.814-1.328,26.999c23.074,0.134,42.971,11.764,64.881,15.079c21.791,3.303,41.119-2.371,56.333-18.194
	c14.844-15.432,10.806-36.45-7.44-44.74c-3.447-1.566-7.004-2.25-10.74-1.681c-6.566,0.991-13.033,7.117-12.891,12.747
	c0.178,6.977,5.518,9.267,11.141,10.774c3.106,0.838,6.367,1.099,9.547,1.617c-10.414,16.864-34.447,18.377-44.895,4.491
	c-6.224-8.27-4.039-21.871,4.902-31.549c10.104-10.938,22.518-14.796,37.095-11.579c1.26,0.28,2.532,0.532,3.807,0.761
	c0.192,0.037,0.417-0.092,0.745-0.177c-12.878-13.685-13.491-30.584-12.855-47.854c0.168-4.544,0.168-4.544,0.168-4.544
	s0,0,3.996,2.167c15.188,8.246,29.426,17.375,34.644,35.433c0.239-0.242,0.464-0.369,0.53-0.553
	c0.451-1.214,0.883-2.438,1.284-3.665c4.652-14.184,14.294-22.903,28.851-26.03c12.884-2.77,25.703,2.277,29.656,11.842
	c6.629,16.063-6.912,35.979-26.729,36.357c1.171-3.003,2.607-5.943,3.47-9.043c1.563-5.608,2.313-11.37-3.599-15.074
	c-4.775-2.99-13.342-0.542-17.537,4.603c-2.393,2.927-3.615,6.337-4.022,10.101c-2.155,19.927,13.884,34.102,34.722,29.184
	c21.361-5.037,36.087-18.787,44.34-39.219c8.306-20.55,8.422-43.594,20.055-63.521c-12.42-0.97-20.105-6.528-23.914-12.603
	c-4.072-6.501-3.506-11.423-3.506-11.423s9.684,7.468,20.302,5.107c5.001-1.103,8.971-2.616,13.308-4.919
	c2.067-1.096,4.829-2.988,6.695-4.423c17.842-13.749,37.191-16.584,58.738-9.909c11.771,3.646,23.596,0.131,34.846-4.212
	C796.713,132.355,808.033,125.687,818.742,117.609z"/>
</svg>
