<?xml version="1.0" encoding="utf-8"?>
<!-- Generator: Adobe Illustrator 18.0.0, SVG Export Plug-In . SVG Version: 6.00 Build 0)  -->
<!DOCTYPE svg PUBLIC "-//W3C//DTD SVG 1.1//EN" "http://www.w3.org/Graphics/SVG/1.1/DTD/svg11.dtd">
<svg version="1.1" xmlns="http://www.w3.org/2000/svg" xmlns:xlink="http://www.w3.org/1999/xlink" x="0px" y="0px"
	 viewBox="0 0 600 600" enable-background="new 0 0 600 600" xml:space="preserve">
<g id="Слой_3">
	<g>
		<path d="M203.5,435.2h11.3c5.9,0,10.1,2.3,10.1,8.6c0,5.8-3.7,8.4-9,8.4h-5.7v8.6h-6.7V435.2z M214,447c2.3,0,4.4-0.2,4.4-3.2
			c0-2.5-1.5-3.2-3.9-3.2h-4.3v6.4H214z"/>
		<path d="M242.5,435.2h13.4c4.8,0,8.7,2.4,8.7,7.4c0,3-1.3,5.1-4,6.3c1.6,0.5,2.8,1.7,3.2,3.3c0.4,1.4,0.5,1.7,0.8,5.4
			c0.1,1.2,0.1,2.2,0.8,3.2h-6.8c-0.6-1.5-0.6-3.7-0.8-5.4c-0.3-3-1.5-4.2-4.6-4.2h-4.1v9.5h-6.7V435.2z M253.9,446.5
			c2.2,0,4-0.5,4-3.2c0-2-1.3-3-4.1-3h-4.6v6.2H253.9z"/>
		<path d="M294.8,461.4c-7.9,0-12.9-5.6-12.9-13.4c0-7.6,5.1-13.4,12.8-13.4c7.6,0,12.6,5.2,12.6,13.5
			C307.3,455.5,302.6,461.4,294.8,461.4z M294.7,440c-3.6,0-5.9,3.1-5.9,7.9c0,5,2.2,8,5.9,8c3.6,0,5.8-3,5.8-8.1
			C300.5,442.9,298.3,440,294.7,440z"/>
		<path d="M325.4,435.2h9.7l4.7,17.8l4.8-17.8h9.5v25.6h-6.3l0.3-19.5l-5.7,19.5h-5.1l-5.7-19.5l0.2,19.5h-6.3V435.2z"/>
		<path d="M385,461.4c-7.9,0-12.9-5.6-12.9-13.4c0-7.6,5.1-13.4,12.8-13.4c7.6,0,12.6,5.2,12.6,13.5
			C397.5,455.5,392.8,461.4,385,461.4z M384.8,440c-3.6,0-5.9,3.1-5.9,7.9c0,5,2.2,8,5.9,8c3.6,0,5.8-3,5.8-8.1
			C390.6,442.9,388.4,440,384.8,440z"/>
	</g>
</g>
<g id="Слой_2">
	<path d="M117,400l113.2-195.9c3.2-5.6,9.2-9,15.6-9c0,0,0,0,0,0c6.4,0,12.4,3.4,15.6,9L343.3,346l98.1-169.9l-11.9-7l54.8-29.8v61
		l-11.7-6.2L358.9,391c-3.2,5.6-9.2,9-15.6,9c-6.4,0-12.4-3.4-15.6-9l-81.9-141.9L158.5,400H117z"/>
	<polygon points="294.2,374.5 196.9,374.5 217.8,338.5 273.4,338.5 	"/>
</g>
</svg>
